<svg xmlns="http://www.w3.org/2000/svg" viewBox="0 0 300 275.01"><g id="Layer_2" data-name="Layer 2"><g id="Layer_1-2" data-name="Layer 1"><path d="M0,257.76c-.1-11.85,8.73-17,22.25-17l16.21-.1v-2.92c0-5.82-5.3-8.1-12.06-8.1-5.3,0-10.6,1.45-12.16,6.65l-12.89.1c.11-11.22,11.44-18.19,24.74-18.19s25.16,7,25.16,18v38.05H38.46v-6.86c-2.39,3-8.52,7.69-17.77,7.69C12.47,275,0,271.58,0,257.76Zm38.46-7.49H24.74c-8,0-11.75,3.43-11.23,7.8.52,4.67,5,5.82,8.32,5.82C29.83,263.89,38.46,258,38.46,250.27Z"/><path d="M62.27,219.09H75.78v6.13a21.29,21.29,0,0,1,16.32-7.07c12.06,0,23,8.21,23,22v34H101.56V243.72c0-8.11-5.62-13-12.16-13-8.22,0-13.62,6.65-13.62,15.07v28.38H62.27Z"/><path d="M122.87,246.53A28.33,28.33,0,1,1,151.14,275,28.39,28.39,0,0,1,122.87,246.53Zm44.07,0a15.75,15.75,0,1,0-15.8,16.11A15.86,15.86,0,0,0,166.94,246.53Z"/><path d="M187.32,219.09h13.51v6.13a21.31,21.31,0,0,1,16.32-7.07c12.06,0,23,8.21,23,22v34H226.61V243.72c0-8.11-5.61-13-12.16-13-8.21,0-13.62,6.65-13.62,15.07v28.38H187.32Z"/><path d="M248.75,257.76c-.1-11.85,8.74-17,22.25-17l16.21-.1v-2.92c0-5.82-5.3-8.1-12-8.1-5.3,0-10.61,1.45-12.17,6.65l-12.88.1c.1-11.22,11.43-18.19,24.73-18.19s25.16,7,25.16,18v38.05H287.21v-6.86c-2.39,3-8.52,7.69-17.77,7.69C261.23,275,248.75,271.58,248.75,257.76Zm38.46-7.49H273.49c-8,0-11.74,3.43-11.22,7.8.52,4.67,5,5.82,8.31,5.82C278.59,263.89,287.21,258,287.21,250.27Z"/><path d="M160.06,24.55a4.2,4.2,0,1,0-4.2-4.2A4.2,4.2,0,0,0,160.06,24.55Z"/><path d="M215.45,44.8V40.64h-4.16a29.89,29.89,0,0,0-29.55,25.71H170.62a41.49,41.49,0,0,0,4-3.47,40.29,40.29,0,0,0,0-56.91h0A20.38,20.38,0,0,0,140.23,24.6l-12.39,9.81h12.43L114.89,59.79h0a37.84,37.84,0,0,0,5.88,5.87A40.63,40.63,0,0,0,127.28,70a50.74,50.74,0,0,1-21.41,10.59l12-12a30.32,30.32,0,0,1-6-5.8L84.55,90.12h10A59.11,59.11,0,0,0,136,73.37a40.39,40.39,0,0,0,10.15,1.3h2.78v5.48c-1.41.13-3.12.35-5.07.69-8.4,1.49-12.61,3.31-17.38,7.53-5.5,5-4.81,10-3.94,12.47-5,4.79-7.43,10.08-7.43,16.11a15.38,15.38,0,0,0,5.11,11.44,18,18,0,0,0,3.46,13.92A18.54,18.54,0,0,0,138.18,150a15.4,15.4,0,0,0,29.68,0,18.47,18.47,0,0,0,14.5-7.6,18.13,18.13,0,0,0,3.52-14A15.36,15.36,0,0,0,191,117c0-6-2.44-11.31-7.41-16.09.87-2.47,1.58-7.48-4-12.52-4.73-4.19-8.94-6-17.34-7.5l-1.1-.18v8.43c6.64,1.2,9.46,2.4,12.89,5.44,2.32,2.11,1.82,3.26,1.63,3.69-1,2.22-5,4.3-7.91,4.06-5.25-.45-10.58-4.1-10.58-10.22V89.3h0V77.58h0V74.67h24.41s6.26-.09,8.63.51h0a21.6,21.6,0,0,1,16.38,16.37,21.63,21.63,0,0,1-14.94-12.1,47.45,47.45,0,0,0-9.09-.88,29.87,29.87,0,0,0,28.7,21.81h4.16V96.22A29.67,29.67,0,0,0,206.7,75.1a30,30,0,0,0-6-4.6A29.85,29.85,0,0,0,215.45,44.8ZM132,94.56c3.53-3.12,6.39-4.31,13.28-5.53,1.36-.24,2.57-.4,3.62-.52v3.55c0,6.12-5.33,9.77-10.58,10.22-2.87.25-6.95-1.84-7.91-4.06C130.21,97.79,129.71,96.64,132,94.56ZM123.39,117c0-3.5,1.42-6.61,4.39-9.64a18.83,18.83,0,0,0,9.82,3.29V117a7.11,7.11,0,1,1-14.21,0Zm15.29,24.76a10.31,10.31,0,0,1-8.35-4.33,10,10,0,0,1-2-5.18,15.9,15.9,0,0,0,2.19.17,15.38,15.38,0,0,0,11.27-4.92,15.45,15.45,0,0,0,7.11,4.33A10.2,10.2,0,0,1,138.68,141.71ZM153,153a7.1,7.1,0,0,1-6.64-4.65A18.52,18.52,0,0,0,153,143.2a18.62,18.62,0,0,0,6.63,5.12A7.1,7.1,0,0,1,153,153Zm15.45-42.38a18.81,18.81,0,0,0,9.83-3.28c3,3,4.38,6.13,4.38,9.63a7.11,7.11,0,1,1-14.21,0Zm-4.17,16.84a15.37,15.37,0,0,0,11.27,4.93,15.64,15.64,0,0,0,2.18-.17,10.12,10.12,0,0,1-2.08,5.26,10.2,10.2,0,0,1-18.48-5.69A15.5,15.5,0,0,0,164.3,127.44Zm-4.15-18.68V117h0a7.11,7.11,0,1,1-14.21,0v-8.17a19.68,19.68,0,0,0,7.14-5.34A19.57,19.57,0,0,0,160.15,108.76ZM146.1,66.35a31.78,31.78,0,0,1-19.41-6.6l11.7-11.7,6-6,10.22-10.22-2.94-2.94A12.07,12.07,0,0,1,168.7,11.85c.48.48.9,1,1.33,1.47a19.51,19.51,0,0,1-21.44,30.8l-6.14,6.41a27.79,27.79,0,0,0,32.13-5.18,28.73,28.73,0,0,0,2.36-2.72A31.82,31.82,0,0,1,146.1,66.35ZM200.82,60a21.45,21.45,0,0,1-10.58,5.81,21.66,21.66,0,0,1,16.39-16.39A21.45,21.45,0,0,1,200.82,60Z"/></g></g></svg>