<?xml version="1.0" encoding="utf-8"?>
<!-- Generator: Adobe Illustrator 25.0.0, SVG Export Plug-In . SVG Version: 6.00 Build 0)  -->
<svg version="1.1" id="Capa_1" xmlns="http://www.w3.org/2000/svg" xmlns:xlink="http://www.w3.org/1999/xlink" x="0px" y="0px"
	 viewBox="0 0 512 512" style="enable-background:new 0 0 512 512;" xml:space="preserve">
<style type="text/css">
	.st0{fill:#FD003A;}
	.st1{fill:#E50027;}
</style>
<path class="st0" d="M428,120.6c-4.9-7-10.8-13.4-17-19.6c-6.2-6.2-12.6-12.1-19.6-17C352.9,53.4,305.8,36,256,36
	c-58.5,0-113.4,23.5-154.9,65.1S36,197.5,36,256c0,50,17.4,97.2,48,135.6c5.2,6.7,10.8,13.1,17,19.3c6.2,6.2,12.6,11.9,19.3,17
	c38.4,30.7,85.6,48,135.6,48c58.5,0,113.4-23.5,154.9-65.1C452.5,369.4,476,314.5,476,256C476,206.2,458.6,159.1,428,120.6z
	 M88.4,256c0-44.9,17.5-86.9,49-118.6c31.7-31.5,73.7-49,118.6-49c36.1,0,70.4,11.3,98.7,32.2L120.9,354.7
	C99.8,326.4,88.4,292.1,88.4,256z M374.6,374.6c-31.7,31.5-73.7,49-118.6,49c-36.1,0-70.4-11.3-98.7-32.5l234.1-233.8
	c20.9,28.4,32.2,62.6,32.2,98.7C423.6,300.9,406,342.9,374.6,374.6z"/>
<path class="st1" d="M120.4,428c38.4,30.7,85.6,48,135.6,48c58.5,0,113.4-23.5,154.9-65.1C452.5,369.4,476,314.5,476,256
	c0-49.8-17.4-96.9-48-135.4c-4.9-7-10.8-13.4-17-19.6L101.1,410.9C107.2,417.1,113.7,422.8,120.4,428z M391.4,157.3
	c20.9,28.4,32.2,62.6,32.2,98.7c0,44.9-17.5,86.9-49,118.6c-31.7,31.5-73.7,49-118.6,49c-36.1,0-70.4-11.3-98.7-32.5L391.4,157.3z"
	/>
</svg>
