<?xml version="1.0" encoding="utf-8"?>
<!-- Generator: Adobe Illustrator 25.0.0, SVG Export Plug-In . SVG Version: 6.00 Build 0)  -->
<svg version="1.1" id="Capa_1" xmlns="http://www.w3.org/2000/svg" xmlns:xlink="http://www.w3.org/1999/xlink" x="0px" y="0px"
	 viewBox="0 0 465.7 465.7" style="enable-background:new 0 0 465.7 465.7;" xml:space="preserve">
<style type="text/css">
	.st0{fill:#F15A24;}
	.st1{fill:#E6E6E6;}
	.st2{fill:#29ABE2;}
	.st3{fill:#0071BC;}
	.st4{fill:#CCCCCC;}
	.st5{fill:#C69C6D;}
	.st6{fill:#A67C52;}
	.st7{fill:#8C6239;}
	.st8{fill:#B3B3B3;}
	.st9{fill:#F7931E;}
	.st10{fill:#FBB03B;}
</style>
<path class="st0" d="M379.6,318.6v-12.7c14,0,25.4-11.4,25.4-25.4v-31.8h-25.4V236h31.8c3.5,0,6.4,2.8,6.4,6.4v38.1
	C417.7,301.5,400.6,318.6,379.6,318.6z"/>
<path class="st1" d="M55.7,147.1H170v222.3H55.7C55.7,369.4,55.7,147.1,55.7,147.1z"/>
<path class="st2" d="M170,147.1h38.1v222.3H170V147.1z"/>
<path class="st3" d="M170,147.1l19.1-44.5l19.1,44.5H170z"/>
<path class="st4" d="M189.1,102.7H74.7l-19.1,44.5H170L189.1,102.7z"/>
<g>
	<path class="st2" d="M74.7,70.9h114.3v31.8H74.7C74.7,102.7,74.7,70.9,74.7,70.9z"/>
	<circle class="st2" cx="112.8" cy="210.6" r="19.1"/>
</g>
<g>
	<path class="st3" d="M87.4,248.7h50.8v12.7H87.4C87.4,261.4,87.4,248.7,87.4,248.7z"/>
	<path class="st3" d="M87.4,274.1h50.8v12.7H87.4C87.4,286.8,87.4,274.1,87.4,274.1z"/>
</g>
<path class="st5" d="M96,339.7l-42.2,30.2c-4.9,3.5-7,9.8-5.1,15.5c1.9,5.6,7.1,9.4,13.1,9.4h53.6L96,339.7z"/>
<path class="st6" d="M143.9,315.9l-41.7,11.9c-6.9,2-11.1,8.9-9.7,16l10.2,51h62.8L143.9,315.9z"/>
<path class="st7" d="M258.9,394.8H146.4l-9.9-73.3c-1-7.5,4.3-14.5,11.8-15.5c0.6-0.1,1.2-0.1,1.9-0.1h108.8V394.8z"/>
<path class="st8" d="M265.3,223.3h-12.7c0-17.5,14.2-31.7,31.8-31.8h92.1c5.3,0,9.5-4.3,9.5-9.5c0-5.3-4.3-9.5-9.5-9.5h-76.2
	c-12.3,0-22.2-10-22.2-22.2c0-12.3,10-22.2,22.2-22.2h28.6c10.5,0,19.1-8.5,19.1-19.1h12.7c0,17.5-14.2,31.7-31.8,31.8h-28.6
	c-5.3,0-9.5,4.3-9.5,9.5c0,5.3,4.3,9.5,9.5,9.5h76.2c12.3,0,22.2,10,22.2,22.2c0,12.3-10,22.2-22.2,22.2h-92.1
	C273.8,204.3,265.3,212.8,265.3,223.3z"/>
<path class="st9" d="M322.3,375.7h-31.6c-35.1,0-63.6-28.5-63.6-63.6v-69.8c0-3.5,2.8-6.4,6.4-6.4l0,0h146.2c3.5,0,6.4,2.8,6.4,6.4
	v69.8C385.9,347.2,357.4,375.7,322.3,375.7z"/>
<g>
	<path class="st10" d="M303.3,350.3h-6.4c-24.5,0-44.4-19.9-44.5-44.5v-6.4h12.7v6.4c0,17.5,14.2,31.7,31.8,31.8h6.4V350.3z"/>
	<path class="st10" d="M252.5,274.1h12.7v12.7h-12.7V274.1z"/>
</g>
<path class="st9" d="M373.2,394.8h-127l-12.7-25.4h152.4L373.2,394.8z"/>
<path class="st0" d="M201.8,363h215.9v12.7H201.8V363z"/>
</svg>
