<?xml version="1.0" encoding="utf-8"?>
<!-- Generator: Adobe Illustrator 25.0.0, SVG Export Plug-In . SVG Version: 6.00 Build 0)  -->
<svg version="1.1" id="Layer_1" xmlns="http://www.w3.org/2000/svg" xmlns:xlink="http://www.w3.org/1999/xlink" x="0px" y="0px"
	 viewBox="0 0 100 100" style="enable-background:new 0 0 100 100;" xml:space="preserve">
<style type="text/css">
	.st0{fill-rule:evenodd;clip-rule:evenodd;stroke:#000000;stroke-miterlimit:10;}
</style>
<path class="st0" d="M90.3,96.7H9.7c-4.7,0-8.5-3.8-8.5-8.5l8.5-51c1.4-7.3,5.7-8.5,10.4-8.5h5.6C28.8,14,38.5,3.3,50,3.3
	S71.2,14,74.4,28.8H80c4.7,0,8.9,1.2,10.4,8.5l8.5,51C98.8,92.9,95,96.7,90.3,96.7z M50,7.5c-9.2,0-17.1,8.9-20,21.2h40
	C67.1,16.4,59.2,7.5,50,7.5z M86.1,37.3c-0.7-2.9-2-4.2-5-4.2h-6c0.3,2.1,0.4,4.2,0.4,6.4c0,1.2-0.9,2.1-2.1,2.1s-2.1-1-2.1-2.1
	c0-2.2-0.1-4.3-0.4-6.4H29.2c-0.3,2.1-0.4,4.2-0.4,6.4c0,1.2-0.9,2.1-2.1,2.1s-2.1-1-2.1-2.1c0-2.2,0.2-4.3,0.4-6.4h-6
	c-3,0-4.4,1.4-5,4.2l-8.5,51c0,2.3,1.9,4.2,4.2,4.2h80.7c2.3,0,4.2-1.9,4.2-4.2L86.1,37.3z"/>
</svg>
