<?xml version="1.0" encoding="utf-8"?>
<!-- Generator: Adobe Illustrator 25.0.0, SVG Export Plug-In . SVG Version: 6.00 Build 0)  -->
<svg version="1.1" id="Layer_1" xmlns="http://www.w3.org/2000/svg" xmlns:xlink="http://www.w3.org/1999/xlink" x="0px" y="0px"
	 viewBox="0 0 100 100" style="enable-background:new 0 0 100 100;" xml:space="preserve">
<style type="text/css">
	.st0{fill:#F7B64C;}
	.st1{fill:#E29F3D;}
	.st2{fill:#F78F4B;}
	.st3{fill:#E5793E;}
</style>
<g id="_x36_34_x2C__dinner_x2C__love_x2C__wedding_x2C__plate">
	<g>
		<path class="st0" d="M85,71.5H15.8c0-0.1,0-0.5,0-0.6c0-19.4,15.6-35.3,34.6-35.3C69.4,35.6,85,52.2,85,71.5z"/>
		<path class="st1" d="M54.7,38.5c6,0,11.7,1.7,16.6,4.5c-5.8-4.6-13-7.5-20.9-7.5c-19,0-34.6,15.9-34.6,35.3c0,0.1,0,0.5,0,0.6h4.3
			C21.3,53.2,36.4,38.5,54.7,38.5z"/>
		<path class="st2" d="M85.2,71.5c2.9,0,5.2,2.3,5.2,5.2c0,1.5-0.6,2.8-1.6,3.7c-1,1-2.3,1.6-3.7,1.6H15.7c-2.9,0-5.2-2.3-5.2-5.2
			c0-1.5,0.6-2.8,1.6-3.7c1-1,2.3-1.6,3.7-1.6h0.1H85H85.2z"/>
		<path class="st3" d="M12.4,80c0-1.5,0.6-2.8,1.6-3.7c1-1,2.3-1.6,3.7-1.6h0.1h69.2h0.2c1.2,0,2.3,0.4,3.2,1.1
			c-0.3-2.5-2.5-4.4-5.1-4.4H85H15.8h-0.1c-1.5,0-2.8,0.6-3.7,1.6c-1,1-1.6,2.3-1.6,3.7c0,1.7,0.8,3.1,2,4.1
			C12.4,80.5,12.4,80.3,12.4,80z"/>
		<path class="st1" d="M50.4,37.5c-1,0-1.9-0.9-1.9-1.9v-7c0-1,0.9-1.9,1.9-1.9c1,0,1.9,0.9,1.9,1.9v7
			C52.3,36.6,51.4,37.5,50.4,37.5z"/>
		<path class="st1" d="M57.4,28.6h-14c-1,0-1.9-0.9-1.9-1.9c0-1,0.9-1.9,1.9-1.9h14c1,0,1.9,0.9,1.9,1.9
			C59.4,27.7,58.5,28.6,57.4,28.6z"/>
		<path class="st1" d="M55.5,62.9h-35c-1,0-1.9-0.9-1.9-1.9s0.9-1.9,1.9-1.9h35c1,0,1.9,0.9,1.9,1.9C57.4,62,56.6,62.9,55.5,62.9z"
			/>
		<path class="st0" d="M24,34.9c-0.8,0-1.6-0.5-1.8-1.3c-0.3-1,0.2-2.1,1.2-2.4c0,0,2.3-0.9,3-2.7c0.4-1.3,0-3-1.3-4.9
			c-2-3-2.6-5.8-1.7-8.3c1.2-3.7,5.2-5,5.4-5c1-0.3,2.1,0.2,2.4,1.2s-0.2,2.1-1.2,2.4c-0.1,0-2.3,0.9-3,2.7c-0.4,1.3,0,3,1.3,4.9
			c2,3,2.6,5.8,1.7,8.3c-1.2,3.7-5.2,5-5.4,5C24.4,34.9,24.2,34.9,24,34.9z"/>
		<path class="st0" d="M74.7,34.9c-0.8,0-1.6-0.5-1.8-1.3c-0.3-1,0.2-2.1,1.2-2.4c0,0,2.3-0.9,3-2.7c0.4-1.3,0-3-1.3-4.9
			c-2-3-2.6-5.8-1.7-8.3c1.2-3.7,5.2-5,5.4-5c1-0.3,2.1,0.2,2.4,1.2s-0.2,2.1-1.2,2.4c-0.1,0-2.3,0.9-3,2.7c-0.4,1.3,0,3,1.3,4.9
			c2,3,2.6,5.8,1.7,8.3c-1.2,3.7-5.2,5-5.4,5C75.1,34.9,74.8,34.9,74.7,34.9z"/>
	</g>
</g>
<g id="Layer_1_1_">
</g>
</svg>
