<?xml version="1.0" encoding="utf-8"?>
<!-- Generator: Adobe Illustrator 25.0.0, SVG Export Plug-In . SVG Version: 6.00 Build 0)  -->
<svg version="1.1" id="Layer_1" xmlns="http://www.w3.org/2000/svg" xmlns:xlink="http://www.w3.org/1999/xlink" x="0px" y="0px"
	 viewBox="0 0 512 512" style="enable-background:new 0 0 512 512;" xml:space="preserve">
<style type="text/css">
	.st0{display:none;fill:#FFFDFD;}
	.st1{fill:#FFFDFD;}
</style>
<g>
	<path class="st0" d="M455.7-102.1H210.9c-172.9,0-313,140.2-313,313v244.5c0,87.8,70.9,158.7,158.4,158.7H301
		c172.9,0,313-140.2,313-313.2V56.3C614.1-31.2,543.3-102.1,455.7-102.1z"/>
	<circle class="st1" cx="398.1" cy="114.5" r="31.2"/>
	<g>
		<path class="st1" d="M356.1,24.6H156c-72.5,0-131.3,58.8-131.3,131.3v200c0,72.5,58.8,131.3,131.3,131.3h200
			c72.5,0,131.3-59,131.3-131.3v-200C487.4,83.4,428.6,24.6,356.1,24.6z M445.7,356.1c0,49.4-40.2,89.6-89.6,89.6H156
			c-49.4,0-89.6-40.2-89.6-89.6V155.9c0-49.4,40.2-89.6,89.6-89.6h200c49.4,0,89.6,40.2,89.6,89.6V356L445.7,356.1L445.7,356.1z"/>
		<path class="st1" d="M256,135.6c-66.5,0-120.4,53.9-120.4,120.4s54,120.4,120.4,120.4S376.4,322.5,376.4,256
			S322.5,135.6,256,135.6z M256,334.7c-43.3,0-78.7-35.4-78.7-78.7s35.4-78.7,78.7-78.7s78.7,35.4,78.7,78.7S299.4,334.7,256,334.7z
			"/>
	</g>
</g>
</svg>
