<svg xmlns="http://www.w3.org/2000/svg" viewBox="0 0 451.89 161.29"><g id="Layer_2" data-name="Layer 2"><g id="Layer_1-2" data-name="Layer 1"><path d="M151.89,80.52c-.1-11.85,8.73-17,22.25-17l16.21-.11V60.46c0-5.82-5.3-8.1-12-8.1-5.31,0-10.61,1.45-12.17,6.65l-12.89.1c.11-11.22,11.44-18.19,24.74-18.19s25.16,7,25.16,18V97H190.35V90.09c-2.39,3-8.52,7.69-17.77,7.69C164.37,97.78,151.89,94.35,151.89,80.52ZM190.35,73H176.63c-8,0-11.74,3.43-11.22,7.8.52,4.67,5,5.82,8.31,5.82C181.73,86.66,190.35,80.73,190.35,73Z"/><path d="M214.16,41.86h13.51V48A21.31,21.31,0,0,1,244,40.92c12.06,0,23,8.21,23,22V97H253.45V66.49c0-8.11-5.61-13-12.16-13-8.21,0-13.62,6.65-13.62,15.07V97H214.16Z"/><path d="M274.76,69.3A28.33,28.33,0,1,1,303,97.78,28.4,28.4,0,0,1,274.76,69.3Zm44.08,0A15.75,15.75,0,1,0,303,85.41,15.86,15.86,0,0,0,318.84,69.3Z"/><path d="M339.21,41.86h13.51V48A21.31,21.31,0,0,1,369,40.92c12.06,0,23,8.21,23,22V97H378.5V66.49c0-8.11-5.61-13-12.16-13-8.21,0-13.62,6.65-13.62,15.07V97H339.21Z"/><path d="M400.65,80.52c-.11-11.85,8.73-17,22.24-17l16.22-.11V60.46c0-5.82-5.3-8.1-12.06-8.1-5.3,0-10.6,1.45-12.16,6.65l-12.89.1c.1-11.22,11.43-18.19,24.74-18.19s25.15,7,25.15,18V97H439.11V90.09c-2.39,3-8.53,7.69-17.78,7.69C413.12,97.78,400.65,94.35,400.65,80.52ZM439.11,73H425.39c-8,0-11.75,3.43-11.23,7.8.52,4.67,5,5.82,8.32,5.82C430.48,86.66,439.11,80.73,439.11,73Z"/><path d="M75.5,24.55a4.2,4.2,0,1,0-4.2-4.2A4.2,4.2,0,0,0,75.5,24.55Z"/><path d="M130.89,44.8V40.64h-4.16A29.89,29.89,0,0,0,97.19,66.35H86.06A40.18,40.18,0,0,0,90,6h0A20.38,20.38,0,0,0,55.68,24.6l-12.4,9.81H55.72L30.33,59.79h0a38.21,38.21,0,0,0,5.89,5.87A40.63,40.63,0,0,0,42.73,70,50.79,50.79,0,0,1,21.32,80.57l12-12a30.88,30.88,0,0,1-6-5.8L0,90.12H10A59.08,59.08,0,0,0,51.4,73.37a40.53,40.53,0,0,0,10.16,1.3h2.77v5.48c-1.41.13-3.12.35-5.06.69-8.4,1.49-12.62,3.31-17.38,7.53-5.51,5-4.81,10-3.94,12.47-5,4.79-7.43,10.08-7.43,16.11a15.38,15.38,0,0,0,5.11,11.44,18,18,0,0,0,3.45,13.92A18.55,18.55,0,0,0,53.62,150a15.4,15.4,0,0,0,29.69,0,18.48,18.48,0,0,0,14.5-7.6,18.11,18.11,0,0,0,3.51-14A15.37,15.37,0,0,0,106.44,117c0-6-2.44-11.31-7.41-16.09.87-2.47,1.58-7.48-4-12.52-4.73-4.19-9-6-17.35-7.5l-1.09-.18v8.43c6.63,1.2,9.46,2.4,12.89,5.44,2.32,2.11,1.82,3.26,1.63,3.69-1,2.22-5,4.3-7.91,4.06-5.26-.45-10.58-4.1-10.58-10.22V89.3h0V77.58h0V74.67h24.4s6.26-.09,8.64.51h0a21.62,21.62,0,0,1,16.38,16.37,21.61,21.61,0,0,1-14.94-12.1A47.55,47.55,0,0,0,98,78.57a29.85,29.85,0,0,0,28.69,21.81h4.16V96.22a29.63,29.63,0,0,0-8.75-21.12,30,30,0,0,0-6-4.6A29.85,29.85,0,0,0,130.89,44.8ZM47.44,94.56C51,91.44,53.82,90.25,60.72,89c1.36-.24,2.56-.4,3.61-.52v3.55c0,6.12-5.32,9.77-10.58,10.22-2.86.25-6.94-1.84-7.91-4.06C45.65,97.79,45.15,96.64,47.44,94.56ZM38.83,117c0-3.5,1.42-6.61,4.39-9.64A18.89,18.89,0,0,0,53,110.6V117a7.11,7.11,0,1,1-14.21,0Zm15.3,24.76a10.28,10.28,0,0,1-8.35-4.33,9.91,9.91,0,0,1-2-5.18,15.66,15.66,0,0,0,2.19.17,15.34,15.34,0,0,0,11.26-4.92,15.53,15.53,0,0,0,7.12,4.33A10.21,10.21,0,0,1,54.13,141.71ZM68.47,153a7.09,7.09,0,0,1-6.64-4.65,18.52,18.52,0,0,0,6.65-5.13,18.62,18.62,0,0,0,6.63,5.12A7.11,7.11,0,0,1,68.47,153ZM83.91,110.6a18.79,18.79,0,0,0,9.83-3.28c3,3,4.38,6.13,4.38,9.63a7.11,7.11,0,1,1-14.21,0Zm-4.17,16.84A15.39,15.39,0,0,0,91,132.37a15.76,15.76,0,0,0,2.18-.17,10.3,10.3,0,0,1-20.56-.43A15.47,15.47,0,0,0,79.74,127.44ZM75.6,108.76V117h0a7.11,7.11,0,1,1-14.21,0v-8.17a19.65,19.65,0,0,0,7.13-5.34A19.53,19.53,0,0,0,75.6,108.76ZM61.54,66.35a31.77,31.77,0,0,1-19.4-6.6l11.7-11.7,6-6L70,31.87l-2.94-2.94A12.08,12.08,0,0,1,84.15,11.85c.47.48.89,1,1.33,1.47A19.52,19.52,0,0,1,64,44.12l-6.14,6.41A27.8,27.8,0,0,0,90,45.35a28.73,28.73,0,0,0,2.36-2.72A31.82,31.82,0,0,1,61.54,66.35ZM116.26,60a21.42,21.42,0,0,1-10.57,5.81,21.63,21.63,0,0,1,16.38-16.39A21.38,21.38,0,0,1,116.26,60Z"/></g></g></svg>