<?xml version="1.0" encoding="utf-8"?>
<!-- Generator: Adobe Illustrator 25.0.0, SVG Export Plug-In . SVG Version: 6.00 Build 0)  -->
<svg version="1.1" id="Layer_1" xmlns="http://www.w3.org/2000/svg" xmlns:xlink="http://www.w3.org/1999/xlink" x="0px" y="0px"
	 viewBox="0 0 67 67" style="enable-background:new 0 0 67 67;" xml:space="preserve">
<style type="text/css">
	.st0{fill-rule:evenodd;clip-rule:evenodd;fill:#FFFFFF;}
</style>
<g id="black">
	<g id="slice" transform="translate(-600.000000, 0.000000)">
	</g>
	<g id="linkedin" transform="translate(16.000000, 17.000000)">
		<path class="st0" d="M2.1,43.1v-36H-9v36H2.1z M2.1-5.6c0-3.3-2.2-5.6-5.6-5.6c-3.6-0.2-5.8,2.3-5.8,5.6C-9.3-2.5-7.1,0-3.7,0l0,0
			C0,0.1,2.1-2.4,2.1-5.6z M20.3,43.1V22.6c0-1.1,0.2-2.2,0.5-3c0.9-2.2,2.8-4.5,6.3-4.5c4.4,0,7.2,2.5,7.2,7.5v20.5h11.3V22
			c0-11.3-5.9-16.6-14.1-16.6c-6.6,0-9.5,3.8-11.1,6.3l0.2-4.8H9.3c0.2,3.4,0,36.1,0,36.1L20.3,43.1L20.3,43.1L20.3,43.1z"/>
	</g>
</g>
</svg>
