<?xml version="1.0" encoding="utf-8"?>
<!-- Generator: Adobe Illustrator 25.0.0, SVG Export Plug-In . SVG Version: 6.00 Build 0)  -->
<svg version="1.1" id="Layer_1" xmlns="http://www.w3.org/2000/svg" xmlns:xlink="http://www.w3.org/1999/xlink" x="0px" y="0px"
	 viewBox="0 0 100 100" style="enable-background:new 0 0 100 100;" xml:space="preserve">
<style type="text/css">
	.st0{fill:#CF9F66;}
	.st1{fill:#89643D;}
	.st2{fill:#C45C00;}
	.st3{fill:#C98019;}
	.st4{fill:#EB9800;}
	.st5{fill:#D68B00;}
	.st6{fill:#EBBA1D;}
	.st7{fill:#FFCA1F;}
	.st8{fill:#FFD85E;}
	.st9{fill:#FFE38A;}
	.st10{fill:#D96600;}
	.st11{fill:#FFD03B;}
	.st12{fill:#FFE38C;}
	.st13{fill:#FFF4D1;}
	.st14{fill:#FFF0C2;}
	.st15{opacity:0.51;fill:#FFF276;enable-background:new    ;}
	.st16{fill:#FFF2FF;}
	.st17{fill:#965030;}
	.st18{fill:#FFB95C;}
	.st19{fill:#FFE9CC;}
	.st20{fill:url(#SVGID_1_);}
	.st21{opacity:0.47;fill:#FF9100;enable-background:new    ;}
	.st22{fill:#70270F;}
	.st23{fill:url(#SVGID_2_);}
	.st24{fill:url(#SVGID_3_);}
	.st25{fill:#FFF0DB;}
	.st26{fill:#FFBC00;}
	.st27{fill:#FFF8F0;}
	.st28{opacity:0.24;fill:#FFF276;enable-background:new    ;}
	.st29{fill:#FFF8ED;}
	.st30{fill:#FFFFFF;}
	.st31{fill:#351207;}
	.st32{fill:#4A190A;}
	.st33{fill:#6B240E;}
	.st34{fill:#009C08;}
	.st35{fill:#00C40A;}
	.st36{fill:#1CFF28;}
</style>
<g id="ramen">
	<circle class="st0" cx="50" cy="50.5" r="49.5"/>
	<circle class="st1" cx="50.2" cy="50.6" r="42.3"/>
	<circle class="st2" cx="45.3" cy="47.8" r="33.5"/>
	<path class="st3" d="M9.4,39.5c0,0,9.3-8.4,19.2-6.5S40.1,44.6,36,48.3c0,0-1.4-0.1-2-2.4c-0.7-2.1-2.8-6.9-7.1-6.9
		S18,39.7,8.6,47.3C8.3,44.7,8.6,42,9.4,39.5z"/>
	<path class="st4" d="M44.3,29.8c0,0,13.1-8.7,21.7,0.7c1.7,3,3.7,6,6.1,8.6c2.5,2.3,8.9,4.2,8.5,12c-0.3,7.8-3.9,10.3-6,10.5
		c-2,0.2-13.5-1.5-16.1,2.1c-2.6,3.6-1.4,12.4-4.6,16.6c-3.2,4.1-18.6-1.8-14.1-13.1s-3.2-17.7-4.5-20.8c-1.5-3-5.2-10.6,5.1-14.2
		s7.9,3.8,5.2,4.7s-7.8,1.5-6.9,6.9s7.6,7.9,7.1,15.8c-0.5,7.9-3.7,9.9-2.1,13.1c1.6,3.2,6.9,6.1,8,2.6c1.1-3.4-0.2-13.4,6.7-17.5
		s14.1,0.6,16.4-1.7c2.1-2.1,1.9-7.7-2.6-10.8c-4.1-3-7.3-6.9-9.6-11.3c-2.1-3.9-9.8-3.8-16.5,0.1S38.3,33.5,44.3,29.8z"/>
	<path class="st5" d="M39.5,25.5c0,0-5.2-6.5,0.3-12.6s23.4-1.7,21.7,8.1c-1.7,9.7,0.5,9.5,3,11.2c2.6,1.8,7.2,1.4,10.8,3.5
		c3.5,2.1,6.5,6.5,1.7,12.8c-4.6,6.3-13.2,8.1-20.1,4.4c-7.7-3.7-13.2-6.7-16.9,3.5c-3.7,10.2-5.8,17.6-11.4,18.1
		c-5.6,0.5-7-1.6-4.7-4.1s4.7,0.1,6.9-3.3C33,63.8,33,58.9,38,51.7s11.8-6.4,18.7-2.7c5.1,3.2,11.8,1.7,15-3.4
		c0-0.1,0.1-0.2,0.1-0.2c2.8-4.3,1.8-7.3-9.8-8.6c0,0-8.1-2.4-6.9-10s-0.9-11.8-5.8-12c-4.9-0.1-8.8,3.8-6.5,10.9
		C45.2,32.7,39.5,25.5,39.5,25.5z"/>
	<path class="st6" d="M77.3,39.7c0,0,2-9.5-6-14.6c-8-5.1-15.2,3.3-19,10.8c-3.7,7.7-0.5,14.6-5.1,17.8c-4.6,3.2-12.8-0.7-17.7,0
		S12.1,62.4,28,76.2s34.6-1.7,37.1-5.4c2.5-3.7,3.3-7.8,6.4-10.6c3.2-2.8-2.9-3.6-4.5-1.8c-2.3,2.7-4.2,5.8-5.6,9
		c-1.8,3.8-11.2,8.5-17.8,8.6s-16-3.4-17.3-11.3c-1.2-7.9,10.2-5.3,12.6-4.2c2.5,1.1,17.5-1.1,17.5-14.1s8-17.2,13.3-16.4
		c5.3,0.9,3.4,11.1,1.8,12.4c-1.6,1.5-8.1,7.2-16.7,0.5l-1.6,4.4c0,0,7.1,7.3,14.8,4.4C75.7,48.9,77.3,39.7,77.3,39.7z"/>
	<path class="st7" d="M32,50c0,0-11.1-8-2.1-20.3S55.3,19.4,56.4,25s-2.8,10.8,1.8,17.8s14.2,6.1,18.3,16.4S63.4,82.1,52.7,72.4
		S50.9,56,53.9,54.5c2.8-1.6,4.1,1.2,2.5,3.6c-1.6,2.4-8.4,7.4,1.2,12.9S76.8,64.9,71,58.9s-7.2-3.6-14.4-11.3s-4.4-14.4-4.4-17.4
		s-3.4-7.2-9.3-4.6s-19.2,13.2-6.7,23.9C36.4,49.6,36.7,51.7,32,50z"/>
	<path class="st8" d="M79.4,39c0,0-11.4-6.7-18.8,6.3S75.8,66,77.3,60.2c1.6-5.9-0.5-3.6-3.3-3.2c-2.8,0.5-12.6,0.8-10.9-9.9
		c1.5-9.3,12.9-7.6,15.5-5.2c0.6,0.6,1.6,0.6,2.1,0c0.1-0.1,0.2-0.2,0.2-0.3C81.3,41,81.1,40.1,79.4,39z"/>
	<path class="st9" d="M50.7,64.5c0,0,7.4-4.2,6.4-10.7c-1.1-6.5-2.1-5.2-2-3.8c0.2,1.2,1.8,5.6-0.7,9c-1.2,1.9-2.8,3.6-4.7,4.9
		C47.1,65.6,50.3,64.8,50.7,64.5z"/>
	<path class="st8" d="M48.3,21.7c0,0,5.9-0.8,7.1,3s0.5,1.6-1.2,0.5C52.4,23.9,44.5,23,48.3,21.7z"/>
	<circle class="st10" cx="57.7" cy="57.9" r="29.6"/>
	<path class="st3" d="M72.2,87c0,0,5.2-9.6,1.7-17.8C70.4,61,61.5,61.7,59.2,66c0,0,0.5,1.1,2.5,1.2c2,0.1,6.5,1,7.4,4.7
		c0.9,3.7,1.2,7.8-3.3,17.4C68,88.9,70.2,88.2,72.2,87z"/>
	<path class="st4" d="M73.2,55c0,0,4.7-13.1-5.1-18.5c-3-0.8-5.9-2-8.7-3.5c-2.5-1.7-5.4-6.8-12-4.9s-8,5.5-7.8,7.3
		c0.2,1.8,4.1,11.3,1.5,14.2c-2.6,2.9-10.4,3.7-13.2,7.4s5.3,15.7,14.1,9.5s15.8-1,18.7-0.3c2.9,0.6,10.2,2.3,11.2-7.2
		c0.9-9.5-5-6-5.2-3.5c-0.2,2.5,0.3,7-4.5,7.3c-4.9,0.2-8.4-4.9-15-2.8c-6.7,2-7.8,5.3-10.7,4.5c-2.8-0.6-6.4-4.5-3.7-6.2
		c2.7-1.7,11.6-2.6,13.7-9.4c2-6.8-3.4-12.2-2-14.6c1.4-2.4,6.2-3.2,9.8-0.1c3.4,2.8,7.4,4.9,11.7,6c3.8,1,5.3,7.7,3.3,14.2
		C67.2,61.1,71.4,61,73.2,55z"/>
	<path class="st5" d="M77.9,58.2c3.8,1.8,8.5,0.6,10.8-2.9c4.2-6.1-3.4-20.4-11.4-16.9c-8,3.5-8.2,1.6-10.3-0.3
		c-2-1.9-2.7-6-5.3-8.6c-2.6-2.6-7-4.2-11.3,1.2c-4.4,5.2-4.3,13,0.3,18.1c4.7,5.8,8.4,9.9,0.6,15.2c-7.8,5.3-13.9,8.6-13.1,13.5
		s2.8,5.6,4.5,3.2c1.7-2.5-1-4.1,1.4-6.7c2.4-2.6,6.5-3.5,11.6-9.3s3-11.5-1.6-16.6c-3.8-3.7-3.9-9.8-0.2-13.7
		c0.1-0.1,0.1-0.1,0.2-0.2c3-3.3,6-3,9.4,6.7c0,0,3.7,6.5,10,3.8c6.3-2.7,10.4-1.7,11.5,2.5s-1.5,8.4-8,7.9
		C70.6,54.9,77.9,58.2,77.9,58.2z"/>
	<path class="st6" d="M57.8,28.7c0,0,7.7-3.7,13.8,2c6.1,5.9,0.5,13.8-5.3,18.6s-12.4,3.4-14.2,8s3.2,10.8,3.6,15.2
		c0.5,4.4-3.7,16.8-18.8,6.1s-5.8-30-3-33c2.7-2.9,6-4.4,7.8-7.7c1.8-3.4,3.7,1.8,2.5,3.5c-1.9,2.5-4.2,4.7-6.7,6.7
		c-2.9,2.3-5,11.3-3.6,17.2c1.4,5.9,6.2,13.1,13.3,12.5s2.4-9.8,1-11.7c-1.5-1.9-2.6-15.3,8.5-17.9c11.1-2.6,13.1-10.4,11.3-14.8
		c-1.8-4.4-10.2-0.7-11.1,1c-0.9,1.6-4.5,8.5,3,14.3L56.4,51c0,0-7.8-4.6-6.9-11.7S57.8,28.7,57.8,28.7z"/>
	<path class="st7" d="M58.4,69.8c0,0,9.3,7.9,17.8-2.4s3.5-24-1.5-23.8s-8.7,4.7-15.7,2.1c-7-2.6-8.2-10.9-17.8-12.3
		c-9.6-1.4-17,15.9-6.4,23.1c10.6,7.1,14.3-1.8,15.1-4.6c0.7-2.8-1.9-3.2-3.6-1.4c-1.7,1.8-4.6,8.7-11.3,1.6s1.2-17.7,7.6-14.1
		c6.3,3.7,4.6,5.4,12.6,10s13.3,0.8,15.8,0.2c2.5-0.6,6.9,1.4,5.9,6.9c-1,5.5-7.3,19.2-19.1,10.6C58.1,65.9,56,66,58.4,69.8z"/>
	<path class="st11" d="M89.5,64.1c-2.8-1-5.3-2.8-7.2-5.3c-3.8-4.5-8.9-9.3-19.2-4.6s-8.8,16.2-1,21.2c0,0,2.6,0.7-0.2-2.5
		c-2.8-3.2-5.5-8.9-0.2-13.1s10.4-4.4,14.9-0.6c4.5,3.8,6.5,8.4,11.8,9.6C89.1,67.3,89.4,65.7,89.5,64.1z"/>
	<path class="st8" d="M73.5,84.2c0,0,13.5-3.5,13.1-20.5c0,0-1-9-10.9-7.7c-9.9,1.4-13.7-1.6-16.8-5c-3.2-3.4-9.5-5.9-15.6,1.4
		S43.4,81.8,59,78c15.6-3.8,0.7,9.5-1.8,9.1c-2.5-0.3-3.5-0.8-7.1-3.9S38.6,70.5,29.6,71.4c0,0-0.8,0.7,1.6,3.3
		c2.4,2.5,5.2-1.1,13.9,7.4S56.8,93.8,66.6,84s0.3-10.6-1.8-10.2c-2.3,0.3-10.5,2.8-15.2-2.4c-4.7-5.3-5.3-14-1.4-17.4
		s6.4-2.1,9.7,1.7s12.1,5.9,17.8,4.1c5.8-1.8,10.2,6.1,4.6,15.9S61,82.8,58.2,82.5c-2.4-0.3-10.7-1.4-14.6,1.1
		c-0.9,0.7-1.1,2-0.5,2.9c0.1,0.2,0.3,0.3,0.5,0.5c0.7,0.6,1.6,0.9,2.5,0.9c1.6-0.3,0.3-2.9,18.6-2.1c2.1,0.1,4.3-0.1,6.4-0.7
		C71.8,84.7,72.7,84.4,73.5,84.2z"/>
	<path class="st8" d="M58.2,26.8c0,0,8,8.5-1.6,17.5s-21-8.8-16.2-11.3c4.6-2.6,3.2-0.3,3.4,2.1s2,11.1,10.8,7.3
		c7.7-3.2,3.7-12.6,1.2-14.3c-0.7-0.3-0.8-1.2-0.5-1.8c0.1-0.1,0.1-0.2,0.2-0.2C56,25.6,56.8,25.5,58.2,26.8z"/>
	<path class="st9" d="M42.1,56.7c0,0,2-7.3,7.9-7.8c5.9-0.5,4.9,0.8,3.7,0.9c-1.1,0.1-5.2-0.5-7.6,2.5c-1.5,1.5-2.5,3.2-3.2,5.1
		C41.9,60.1,42,57.1,42.1,56.7z"/>
	<path class="st8" d="M79.4,49.9c0,0-0.5-5.2-4.1-5.5c-3.6-0.3-1.5-0.1-0.1,1.2C76.6,46.8,79,53.4,79.4,49.9z"/>
	<path class="st11" d="M30,14.2c0,0,1.7,3.4,7.7,6.5s12.5,7.4,10.3,20s-15.6,14-23,6.8c0,0-1.4-2.6,2.8-0.5
		c4.3,2.3,11.3,3.7,14.4-3.3c3.2-7,2-12.6-3.4-16.5s-10.9-5-13.7-10.5C25.1,16.8,28.9,14.2,30,14.2z"/>
	<path class="st12" d="M12.1,37.4c0,0,0.2-15.9,19.1-19.7c0,0,10.2-1.2,11.4,9.9s5.4,14.6,9.9,17.2c4.6,2.6,8.9,8.9,2.7,17.5
		s-32.4,7.7-32.4-10.4s-10.6,1.7-9.6,4.3c1,2.6,1.9,3.6,6.2,6.8S36.4,72,37.9,82.2c0,0-0.6,1-3.9-0.9s-0.2-6-12-13.2
		S6,58.2,14.2,44.8s11.5-3.2,11.7-0.7c0.2,2.6-0.3,12.4,6.8,16.1s16.8,2.1,19.5-3.2s0.7-7.7-4.4-10.2s-9.7-11.7-9.1-18.5
		c0.5-6.8-9.4-9.5-18.7-0.8s-2.7,23.1-1.6,26.2c0.9,2.5,4.4,11.5,2.6,16.2c-0.5,1.2-1.9,1.8-3,1.4c-0.2-0.1-0.5-0.2-0.7-0.5
		c-0.8-0.6-1.5-1.5-1.6-2.5c0-1.8,3.2-1.1-2.6-21.1c-0.7-2.4-1-4.7-1-7.2C12,39.3,12,38.3,12.1,37.4z"/>
	<path class="st13" d="M39.3,20.1c0,0,3,1.7,3.6,9.8c0.5,6.3,4.2,12,9.8,14.8c5.2,2.7,7.2,9.1,4.5,14.2c-0.1,0.3-0.3,0.6-0.6,0.9
		c0,0,4.6-9.8-4.5-14.7S42.4,33.5,42,29.7C41.7,25.9,41.6,23.2,39.3,20.1z"/>
	<path class="st11" d="M73.5,27.8c-2.1-3.3-6.3-4.5-9.9-3.2c0,0-2,1.2,0.7,1c3.2-0.6,6.3,0.3,8.7,2.5C75.7,30.9,73.9,28.2,73.5,27.8
		z"/>
	<path class="st14" d="M54.9,56.9c0,0,2.3-3.3,0.6-6.1c-1.7-2.7-0.9-3.3,0-2.6c1.7,1.6,2.6,3.9,2.4,6.3c-0.1,3.4-2.3,8.2-6,9.5
		C48.1,65.1,50.5,61.7,54.9,56.9z"/>
	<path class="st14" d="M16.9,41.2c0,0,3.3-3.7,5.5-2.7c1.7,1.1,2.8,2.9,2.9,5c0.1,0.9,0.3,5.1,0.6,6.1c0.2,1-1.1,0.8-1.2-1.1
		c-0.1-1.8,0-8.2-2.6-8.7c-1.9-0.3-3.8,0.6-4.9,2.1C16.6,42.7,16.5,41.8,16.9,41.2z"/>
	<path class="st15" d="M89.5,47.1c4.7,21.1-16.5,48.9-39.3,42.4c-20.9-6-41.4-14.4-41.4-36.1S27.5,9.7,49.1,9.7S86.2,32,89.5,47.1z"
		/>
	<path class="st16" d="M70,17.5c0,0-2.5-2.4-3.9,0.2c-1.5,2.6,1.4,2.9,2.7,3.2c0,0-1.6,1.6,0.6,2.3s5.3-0.2,8.9,3.7
		c3.6,3.9,9.1,15,6.8,21.3c-2.3,6.2,3.9,11.5,2.8,15.5s-2.6,9.8-5.4,12.1c-2.8,2.3-6,5.6-2.7,5.2c0,0,9.5-8.7,10.5-26.1
		c0.8-5.4,0-10.8-2.5-15.7c-2.6-4.5-5.4-8.9-8.6-13C78.4,24.8,77.5,21.2,70,17.5z"/>
	<path class="st16" d="M28.1,81.4c0,0-2.7-2.4,0.3-3.6s5.2,2.7,5.2,3.9s2.5,3,7.1,4.2s5-0.6,7.3,0.1s6.1,3.8,9.8,3.2
		c3.7-0.7,4.7,0.6,2,1C57.4,90.6,41,88.9,28.1,81.4z"/>
	<ellipse class="st16" cx="59.6" cy="24.3" rx="2.4" ry="2.1"/>
	<path class="st17" d="M41.6,40c0.2,8.2-6.2,15.1-14.4,15.3c-0.3,0-0.7,0-1,0C17.1,55.2,9.8,48,9.5,39c0-8.9,7.7-15.5,16.6-15.5
		S41.6,30.9,41.6,40z"/>
	<circle class="st18" cx="26" cy="39.1" r="14.3"/>
	<circle class="st19" cx="26" cy="39.5" r="13"/>
	
		<linearGradient id="SVGID_1_" gradientUnits="userSpaceOnUse" x1="19.4513" y1="720.4689" x2="32.0962" y2="739.2324" gradientTransform="matrix(1 0 0 1 0 -690)">
		<stop  offset="0.102" style="stop-color:#FFD59E"/>
		<stop  offset="0.301" style="stop-color:#FFB76C"/>
	</linearGradient>
	<circle class="st20" cx="26" cy="40.2" r="11.6"/>
	<path class="st21" d="M13.9,46.8c0,0,6.5-14.4,16.6-21c0,0,1.8-0.6,3.2,1.7c1.4,2.3-16.5,13.9-11.5,15.7s14.8-11.5,17.9-6.1
		c0,0,1,2.4-3.2,5.9c-4.2,3.4-8.5,9.3-8.7,10.5c-1.1,0.1-2.3,0.2-3.4,0.1c3.2-4.6,6.9-8.8,11.1-12.5c3.2-2.3,1.2-3.7-2.9-0.3
		s-13,7.7-13.4,2.7c-0.3-5,7.3-11.6,9-12.8c1.7-1.1,0.7-1.8-0.9-0.3c-5.6,5-9.9,11.2-12.8,18.2C14.6,48,14.3,47.4,13.9,46.8z"/>
	<path class="st19" d="M13.9,46.8c2.5-5.1,5.5-9.8,9.1-14.2c4.7-5.2,7.3-7.1,8.6-6.7c-0.3-0.2-0.7-0.3-1-0.5c-0.6-0.2-4.3,2-8.9,7.4
		c-3.3,4.1-6.1,8.6-8.2,13.2L13.9,46.8z"/>
	<path class="st22" d="M10,43.1c-2-7.3,1.7-15,8.6-18.1c7-3.6,15.6-1.5,20,5c0,0-8.5-10.6-20-4.7C12,28.7,8.5,35.9,10,43.1z"/>
	<path class="st17" d="M31,11.6c7-4.4,16.2-2.3,20.5,4.7c0.2,0.3,0.3,0.6,0.6,0.9c4.5,7.9,1.9,17.9-5.9,22.6
		c-7.8,4.5-17.2,1.1-21.7-6.5S23.2,16.2,31,11.6z"/>
	<circle class="st18" cx="38.1" cy="25.5" r="14.3"/>
	<circle class="st19" cx="38.4" cy="25.3" r="13"/>
	
		<linearGradient id="SVGID_2_" gradientUnits="userSpaceOnUse" x1="-1355.6554" y1="110.1515" x2="-1343.0106" y2="128.9151" gradientTransform="matrix(-0.503 -0.864 0.864 -0.503 -743.2 -1080.35)">
		<stop  offset="0.102" style="stop-color:#FFD59E"/>
		<stop  offset="0.301" style="stop-color:#FFB76C"/>
	</linearGradient>
	<circle class="st23" cx="39" cy="25" r="11.6"/>
	<path class="st21" d="M50.8,32.1c0,0-15.8,1.6-26.4-3.8c-0.9-1-0.9-2.5-0.1-3.6c1.2-2.3,20.3,7.2,19.3,2s-17.4-7-14.3-12.4
		c0,0,1.6-2,6.5-0.2c5.1,1.8,12.3,2.7,13.4,2.3c0.7,0.9,1.2,1.8,1.8,2.8c-5.6-0.5-11.1-1.5-16.5-3.3c-3.5-1.7-3.8,0.8,1.2,2.7
		s13.2,7.3,9,10.3c-4.1,2.8-13.8-0.5-15.6-1.4c-1.8-0.9-1.9,0.3,0.1,1c7.1,2.4,14.7,2.9,22.1,1.8C51.4,30.9,51.2,31.5,50.8,32.1z"/>
	<path class="st19" d="M50.8,32.1c-5.6,0.3-11.3,0.1-16.8-0.8c-6.9-1.6-9.8-2.7-10-4.1c0,0.3,0,0.8,0.1,1.1
		c0.1,0.6,3.9,2.7,10.9,3.9c5.2,0.8,10.4,0.9,15.6,0.5L50.8,32.1z"/>
	<path class="st22" d="M49.6,37.3c-5.3,5.4-13.8,6.1-20,1.6c-6.7-4.2-9.1-12.6-5.8-19.7c0,0-5,12.6,6,19.6
		C36,42.9,44.2,42.2,49.6,37.3z"/>
	<path class="st17" d="M67,34.8c-5.3,6.3-14.7,7.2-21,1.9c-0.2-0.2-0.6-0.5-0.8-0.7c-6.8-6.1-7.3-16.4-1.5-23.2
		c6-6.7,16-6.4,22.7-0.6C73.1,18.2,72.9,28.1,67,34.8z"/>
	<circle class="st18" cx="55.9" cy="23.9" r="14.3"/>
	<circle class="st19" cx="55.6" cy="24.2" r="13"/>
	
		<linearGradient id="SVGID_3_" gradientUnits="userSpaceOnUse" x1="378.1677" y1="177.035" x2="390.8127" y2="195.7986" gradientTransform="matrix(0.7476 0.6642 -0.6642 0.7476 -108.3339 -370.4773)">
		<stop  offset="0.102" style="stop-color:#FFD59E"/>
		<stop  offset="0.301" style="stop-color:#FFB76C"/>
	</linearGradient>
	<circle class="st24" cx="55.2" cy="24.7" r="11.6"/>
	<path class="st21" d="M41.8,21.6c0,0,14.6-6.4,26.3-4.6c1.1,0.7,1.7,2,1.2,3.4c-0.5,2.6-21.6-0.6-19,4.1c2.5,4.6,18.6,1.2,17.4,7.3
		c0,0-0.8,2.5-6.2,2.3c-5.4-0.2-12.5,1.2-13.4,2c-0.9-0.7-1.8-1.4-2.6-2.1c5.4-1.4,11.1-2,16.6-2c3.8,0.5,3.4-1.9-1.9-2.1
		c-5.3-0.2-14.8-2.9-11.7-6.9s13.2-3.8,15.2-3.5c2,0.2,1.7-0.9-0.5-0.9c-7.4,0-14.9,1.8-21.6,5.2C41.6,22.9,41.6,22.2,41.8,21.6z"/>
	<path class="st19" d="M41.8,21.6c5.2-2.1,10.7-3.6,16.2-4.5c7-0.7,10.2-0.5,10.8,0.7c-0.1-0.3-0.2-0.7-0.5-1
		c-0.3-0.6-4.5-1.4-11.6-0.3c-5.2,0.9-10.2,2.4-15,4.4L41.8,21.6z"/>
	<path class="st22" d="M41.2,16.3c3.4-6.8,11.2-10.2,18.4-7.8c7.7,1.9,12.6,9.1,11.6,16.9c0,0,0.8-13.5-11.7-16.7
		C52.4,6.8,44.8,9.8,41.2,16.3z"/>
	<path class="st25" d="M87.8,53.6c-3,6.5-10.7,9.5-17.4,6.5c-6.4-2.9-9.4-10.4-6.8-16.9c4.4-9.8,12.2-14,18.8-11.2
		C89.2,35,91.7,44.7,87.8,53.6z"/>
	<circle class="st26" cx="75.3" cy="49.7" r="10.2"/>
	<path class="st27" d="M66.2,38.8c5.6-4.2,12.9-5.8,19.7-4.3l1,1.1c0,0-9.5-2.3-21.9,5.2L66.2,38.8z"/>
	<circle class="st28" cx="75.2" cy="49.6" r="7.3"/>
	<path class="st29" d="M75.4,80.9c-6.8,2.7-14.3-0.6-17-7.3c-2.7-6.8,0.6-14.3,7.3-17l0,0c10-3.9,18.5-1.4,21.1,5.4
		S84.5,77.3,75.4,80.9z"/>
	<circle class="st26" cx="69.3" cy="69.3" r="10.2"/>
	<path class="st30" d="M70.6,55.1c7,1,13.2,5,17,10.9l-0.1,1.5c0,0-5.1-8.4-19.2-11.8L70.6,55.1z"/>
	<path class="st31" d="M59.4,88.5c0,0-14.4-13.7-11.1-27.3c3.4-13.7,8.1-0.2,5.2,1.8c-2.9,2-1.8,7.6-0.2,10.8
		c1.7,3.4,4.7,7.6,7.1,7.8C62.7,81.9,67.9,92,59.4,88.5z"/>
	<path class="st32" d="M64.5,85.9c0,0-14.1-8.7-13.7-20.4c0.5-11.7,6.7-1.6,4.5,0.7c-2,2.1-0.2,6.4,1.7,8.9c1.9,2.5,5.2,5.4,7.1,5.2
		C66.1,80,71.9,87.2,64.5,85.9z"/>
	<path class="st33" d="M55.3,88c0,0-10.9-9-6.8-16.7c4.3-7.6,7,0.6,4.2,1.5C50,73.7,50.4,77,51.5,79c1.1,2,3.4,4.7,5.3,5.1
		C58.7,84.4,62.3,90.7,55.3,88z"/>
	<path class="st33" d="M64.6,87.5c0,0-11.8-11.8-8.6-23.2c3.2-11.4,6.8,0,4.3,1.7c-2.6,1.7-1.7,6.3-0.5,9.1c1.2,2.8,3.8,6.4,5.8,6.8
		C67.5,82.1,71.7,90.5,64.6,87.5z"/>
	<path class="st34" d="M30.1,49.2c0,0,1.2-2.1-2.1-1.5c-3.4,0.7-2.1,2-2.1,2s0.8-3.2-1.2-1.4c-1.4,1.4-2,3.2-2,5c0,0-1-3.8-3.7-0.8
		c-1.5,1.2-1.7,3.4-0.5,4.9c0.1,0.1,0.2,0.2,0.3,0.3c0,0-0.8,2-1.7,2s0,2.4,0,2.4l-0.3,2.1c0,0,0.3,2.5,2.3,2.8
		c1.9,0.3-3.4,0.7-3.2,2c0.2,1.4,3.2,1.9,3.2,1.9s-2.7,0.8-0.1,2.8c1.8,1.2,4.1,1.6,6.1,1.1l-1.4,1.5c0,0,2.3,2.1,2.9,1.7
		c0.8-0.6,1.2,1.8,2.5,2.1c1.2,0.3,2.7-1.7,2.7-1.7s2.8,2.7,4.5,2.8c1.7,0.1,2-2.4,2-2.4s0.9,0.3,2.5-0.9s3.5,0.9,3.9-2.8
		c0.6-3.7-2-2-2-2s3.4,0.7,3.3-1c-0.1-1.7-3-2.7-3-2.7s3.9,0.2,2.7-2.6c-0.5-1.6-1.8-2.7-3.4-2.9c0,0,0.3-1.1,0.5-2.1
		c0.2-0.9-2.6-1.9-2.6-1.9s0.7,0.9-0.6-1.5c-0.9-1.6-2.4-2.7-4.2-3.3c0,0,1.7-1.9,0.7-3.4c-1-1.5-4.3-0.6-4.3-0.6
		S35.6,47.6,30.1,49.2z"/>
	<path class="st35" d="M26.9,50.9c0.1,0.6-0.2,1.2-0.8,1.4l0,0l0,0c-0.6,0.1-1.2-0.2-1.4-0.8l0,0l-0.9-3.3c-0.1-0.6,0.2-1.2,0.8-1.4
		l0,0l0,0c0.6-0.1,1.2,0.2,1.4,0.8l0,0L26.9,50.9z"/>
	<path class="st35" d="M29.5,51.6c-0.1,0.3-0.8,0.2-1.2-0.1l0,0c-0.6-0.3-0.8-0.8-0.7-1.1l0.9-1.6c0.1-0.3,0.8-0.2,1.2,0.1l0,0
		c0.6,0.3,0.8,0.8,0.7,1.1L29.5,51.6z"/>
	<path class="st36" d="M26.2,51.3c0.5,0.3,0.6,0.9,0.3,1.4l0,0c-0.2,0.6-0.8,0.9-1.1,0.8l-2.3-0.9c-0.5-0.3-0.6-0.9-0.3-1.4l0,0
		c0.2-0.6,0.8-0.9,1.1-0.8L26.2,51.3z"/>
	<path class="st35" d="M18.6,63.1c0.6,0.3,0.8,1,0.5,1.5l0,0c-0.3,0.6-1,0.8-1.5,0.5l0,0l-3-1.5c-0.6-0.3-0.8-1-0.5-1.5l0,0
		c0.3-0.6,1-0.8,1.5-0.5L18.6,63.1z"/>
	<path class="st35" d="M20.9,61.5c0.1,0.3-0.3,0.7-0.9,0.9l0,0c-0.6,0.2-1.1,0.1-1.2-0.2l-0.6-1.7c-0.1-0.3,0.3-0.7,0.9-0.9l0,0
		c0.6-0.2,1.1-0.1,1.2,0.2L20.9,61.5z"/>
	<path class="st36" d="M18.4,63.8c0.5-0.2,0.9,0.1,1.2,0.7l0,0c0.3,0.5,0.2,1-0.2,1.4l-2.1,1c-0.5,0.2-0.9-0.1-1.2-0.7l0,0
		c-0.3-0.5-0.2-1,0.2-1.4L18.4,63.8z"/>
	<path class="st35" d="M26,68.1c0.1,0.6-0.2,1.2-0.8,1.4l0,0l0,0c-0.6,0.1-1.2-0.2-1.4-0.8L23,65.4c-0.1-0.6,0.2-1.2,0.8-1.4l0,0
		l0,0c0.6-0.1,1.2,0.2,1.4,0.8L26,68.1z"/>
	<path class="st35" d="M28.7,68.7c-0.1,0.3-0.8,0.2-1.2-0.1l0,0c-0.6-0.3-0.8-0.8-0.7-1.1l0.9-1.6c0.1-0.3,0.8-0.2,1.2,0.1l0,0
		c0.6,0.3,0.8,0.8,0.7,1.1L28.7,68.7z"/>
	<path class="st36" d="M25.4,68.4c0.5,0.3,0.6,0.9,0.3,1.4l0,0c-0.2,0.6-0.8,0.9-1.1,0.8l-2.3-0.9c-0.5-0.3-0.6-0.9-0.3-1.4l0,0
		c0.2-0.6,0.8-0.9,1.1-0.8L25.4,68.4z"/>
	<path class="st35" d="M24.6,56.7c0.1,0.6-0.2,1.2-0.8,1.4l0,0c-0.6,0.1-1.2-0.2-1.4-0.8l0,0L21.6,54c-0.1-0.6,0.2-1.2,0.8-1.4l0,0
		c0.6-0.1,1.2,0.2,1.4,0.8l0,0L24.6,56.7z"/>
	<path class="st35" d="M27.2,57.5c-0.1,0.3-0.8,0.2-1.2-0.1l0,0c-0.6-0.3-0.8-0.8-0.7-1.1l0.9-1.6c0.1-0.3,0.8-0.2,1.2,0.1l0,0
		c0.6,0.3,0.8,0.8,0.7,1.1L27.2,57.5z"/>
	<path class="st36" d="M24,57.1c0.5,0.3,0.6,0.9,0.3,1.4l0,0c-0.2,0.6-0.8,0.9-1.1,0.8l-2.3-0.9c-0.5-0.3-0.6-0.9-0.3-1.4l0,0
		c0.2-0.6,0.8-0.9,1.1-0.8L24,57.1z"/>
	<path class="st35" d="M39,58.4c-0.3,0.5-1.1,0.6-1.6,0.2l0,0c-0.5-0.3-0.6-1.1-0.2-1.6l0,0l2-2.6c0.3-0.5,1.1-0.6,1.6-0.2l0,0
		c0.5,0.3,0.6,1.1,0.2,1.6L39,58.4z"/>
	<path class="st35" d="M40,61c-0.3,0-0.7-0.5-0.7-1l0,0c-0.1-0.6,0.1-1.1,0.5-1.1l1.8-0.2c0.3,0,0.7,0.5,0.7,1l0,0
		c0.1,0.6-0.1,1.1-0.5,1.1L40,61z"/>
	<path class="st36" d="M38.3,58.1c0.1,0.5-0.2,0.9-0.9,1.1l0,0c-0.5,0.2-1,0-1.2-0.5l-0.7-2.4c-0.1-0.5,0.2-0.9,0.9-1l0,0
		c0.5-0.2,1,0,1.2,0.5L38.3,58.1z"/>
	<path class="st35" d="M35,68.2c-0.3,0.6-1,0.7-1.6,0.3l0,0l0,0c-0.6-0.3-0.7-1-0.3-1.6l0,0l1.8-2.8c0.3-0.6,1-0.7,1.6-0.3l0,0l0,0
		c0.6,0.3,0.7,1,0.3,1.6l0,0L35,68.2z"/>
	<path class="st35" d="M36.3,70.7c-0.3,0.1-0.7-0.3-0.8-1l0,0c-0.1-0.6,0-1.1,0.3-1.2l1.8-0.3c0.3-0.1,0.7,0.3,0.8,1l0,0
		c0.1,0.6,0,1.1-0.3,1.2L36.3,70.7z"/>
	<path class="st36" d="M34.4,68.1c0.1,0.5-0.2,0.9-0.8,1.1l0,0c-0.5,0.2-1,0.1-1.4-0.3l-0.8-2.3c-0.1-0.5,0.2-0.9,0.8-1.1l0,0
		c0.5-0.2,1-0.1,1.4,0.3L34.4,68.1z"/>
	<path class="st35" d="M37.7,77.1c0.1,0.6-0.2,1.2-0.8,1.4l0,0l0,0c-0.6,0.1-1.2-0.2-1.4-0.8l0,0l-0.8-3.2c-0.1-0.6,0.2-1.2,0.8-1.4
		l0,0c0.6-0.1,1.2,0.2,1.4,0.8L37.7,77.1z"/>
	<path class="st35" d="M40.4,77.9c-0.1,0.3-0.8,0.2-1.2-0.1l0,0c-0.6-0.3-0.8-0.8-0.7-1.1l0.9-1.6c0.1-0.3,0.8-0.2,1.2,0.1l0,0
		c0.6,0.3,0.8,0.8,0.7,1.1L40.4,77.9z"/>
	<path class="st36" d="M37.2,77.5c0.5,0.3,0.6,0.9,0.3,1.4l0,0c-0.2,0.6-0.8,0.9-1.1,0.8l-2.3-0.9c-0.5-0.3-0.6-0.9-0.3-1.4l0,0
		c0.2-0.6,0.8-0.9,1.1-0.8L37.2,77.5z"/>
	<path class="st35" d="M28.8,76c-0.3,0.5-1,0.6-1.6,0.2l0,0l0,0c-0.5-0.3-0.6-1-0.2-1.6l0,0l2-2.7c0.3-0.5,1-0.6,1.6-0.2l0,0
		c0.5,0.3,0.6,1,0.2,1.6L28.8,76z"/>
	<path class="st35" d="M30,78.4c-0.3,0-0.7-0.5-0.8-1l0,0c-0.1-0.6,0.1-1.1,0.5-1.2l1.8-0.2c0.3,0,0.7,0.5,0.8,1l0,0
		c0.1,0.6-0.1,1.1-0.5,1.2L30,78.4z"/>
	<path class="st36" d="M28.1,75.7c0.1,0.5-0.2,0.9-0.8,1.1l0,0c-0.5,0.2-1,0-1.4-0.5L25.3,74c-0.1-0.5,0.2-0.9,0.8-1.1l0,0
		c0.5-0.2,1,0,1.4,0.5L28.1,75.7z"/>
	<path class="st35" d="M19.3,72.9c0.6,0,1.1,0.5,1.2,1l0,0l0,0c0,0.6-0.5,1.1-1,1.2l0,0l-3.4,0.2c-0.6,0-1.1-0.5-1.2-1l0,0l0,0
		c0-0.6,0.5-1.1,1-1.2l0,0L19.3,72.9z"/>
	<path class="st35" d="M20.6,70.3c0.2,0.2,0.1,0.8-0.3,1.2l0,0C19.8,72,19.3,72.2,19,72l-1.4-1.1c-0.2-0.2-0.1-0.8,0.3-1.2l0,0
		c0.5-0.5,0.9-0.7,1.2-0.5L20.6,70.3z"/>
	<path class="st36" d="M19.7,73.5c0.3-0.3,1-0.5,1.4-0.1l0,0c0.5,0.2,0.7,0.8,0.6,1.2l-1.4,2c-0.3,0.3-1,0.5-1.4,0.1l0,0
		c-0.5-0.2-0.7-0.8-0.6-1.2L19.7,73.5z"/>
	<path class="st35" d="M42.6,65.8c-0.5,0.5-1.1,0.5-1.6,0l0,0c-0.5-0.5-0.5-1.1,0-1.6l2.4-2.5c0.5-0.5,1.1-0.5,1.6,0l0,0l0,0
		c0.5,0.5,0.5,1.1,0,1.6L42.6,65.8z"/>
	<path class="st35" d="M43.4,68.5c-0.3,0-0.6-0.5-0.6-1.1l0,0c0-0.7,0.2-1.1,0.6-1.1h1.8c0.3,0,0.6,0.5,0.6,1.1l0,0
		c0,0.7-0.2,1.1-0.6,1.1H43.4z"/>
	<path class="st36" d="M41.9,65.5c0.1,0.5-0.3,0.9-1,1l0,0c-0.6,0.1-1.1-0.1-1.2-0.6l-0.3-2.4c-0.1-0.5,0.3-0.9,1-1l0,0
		c0.6-0.1,1.1,0.1,1.2,0.6L41.9,65.5z"/>
	<path class="st35" d="M43.8,73.3c0.1,0.6-0.2,1.2-0.8,1.4l0,0l0,0c-0.6,0.1-1.2-0.2-1.4-0.8l-0.9-3.3c-0.1-0.6,0.2-1.2,0.8-1.4l0,0
		l0,0c0.6-0.1,1.2,0.2,1.4,0.8L43.8,73.3z"/>
	<path class="st35" d="M46.4,73.9c-0.1,0.3-0.8,0.2-1.2-0.1l0,0c-0.6-0.3-0.8-0.8-0.7-1.1l0.9-1.6c0.1-0.3,0.8-0.2,1.2,0.1l0,0
		c0.6,0.3,0.8,0.8,0.7,1.1L46.4,73.9z"/>
	<path class="st36" d="M43.2,73.6c0.5,0.3,0.6,0.9,0.3,1.4l0,0c-0.2,0.6-0.8,0.9-1.1,0.8l-2.3-0.9c-0.5-0.3-0.6-0.9-0.3-1.4l0,0
		c0.2-0.6,0.8-0.9,1.1-0.8L43.2,73.6z"/>
	<path class="st35" d="M29.3,62.9c-0.2,0.6-0.9,0.9-1.5,0.6l0,0l0,0c-0.6-0.2-0.9-0.9-0.6-1.5l0,0l1.2-3.2c0.2-0.6,0.9-0.9,1.5-0.6
		l0,0c0.6,0.2,0.9,0.9,0.6,1.5l0,0L29.3,62.9z"/>
	<path class="st35" d="M31,65c-0.3,0.1-0.8-0.2-1-0.8l0,0c-0.2-0.6-0.2-1.1,0.1-1.2l1.7-0.7c0.3-0.1,0.8,0.2,1,0.8l0,0
		c0.2,0.6,0.2,1.1-0.1,1.2L31,65z"/>
	<path class="st36" d="M28.5,62.8c0.2,0.5-0.1,1-0.6,1.2l0,0c-0.5,0.3-1,0.2-1.4-0.1l-1.2-2.1c-0.2-0.3,0-0.9,0.6-1.2l0,0
		c0.5-0.3,1-0.2,1.4,0.1L28.5,62.8z"/>
	<path class="st35" d="M32,55.2c-0.5,0.5-1.1,0.3-1.6-0.1l0,0l0,0c-0.5-0.5-0.3-1.1,0.1-1.6l0,0l2.5-2.3c0.5-0.5,1.1-0.3,1.6,0.1
		l0,0l0,0c0.5,0.5,0.3,1.1-0.1,1.6l0,0L32,55.2z"/>
	<path class="st35" d="M32.7,58c-0.3,0-0.6-0.6-0.6-1.1l0,0c0-0.7,0.3-1.1,0.7-1.1l1.8,0.1c0.3,0,0.6,0.6,0.6,1.1l0,0
		c0,0.7-0.3,1.1-0.7,1.1L32.7,58z"/>
	<path class="st36" d="M31.4,54.9c0,0.5-0.5,0.9-1,0.9l0,0c-0.6,0-1.1-0.2-1.2-0.7l-0.2-2.4c0-0.5,0.5-0.9,1-0.9l0,0
		c0.6,0,1.1,0.2,1.2,0.7L31.4,54.9z"/>
	<path class="st34" d="M38.9,89.6c0,0-1.2,1.9,1.9,1.4c3-0.6,1.9-1.8,1.9-1.8s-0.8,2.8,1.1,1.2c1.2-1.1,1.9-2.8,1.9-4.5
		c0,0,0.9,3.5,3.4,0.8c1.4-1,1.6-3,0.6-4.4c-0.1-0.1-0.2-0.2-0.3-0.3c0,0,0.8-1.8,1.6-1.8s0-2.1,0-2.1l0.5-1.9c0,0-0.3-2.3-2-2.6
		c-1.7-0.3,3-0.6,2.9-1.8s-2.8-1.8-2.8-1.8s2.5-0.7,0.1-2.6c-1.6-1.1-3.6-1.6-5.5-1.1l1.2-1.4c0,0-1.9-2-2.7-1.6
		c-0.7,0.5-1-1.6-2.1-2c-1.1-0.5-2.5,1.5-2.5,1.5s-2.5-2.5-4.1-2.6c-1.6-0.1-1.9,2.1-1.9,2.1s-0.9-0.3-2.3,0.8
		c-1.5,1.1-3.2-0.9-3.7,2.5c-0.3,3.4,2,1.9,2,1.9s-3-0.7-3,0.8c0.1,1.6,2.8,2.6,2.8,2.6s-3.6-0.2-2.5,2.4c0.5,1.5,1.6,2.5,3,2.7
		c0,0-0.3,1-0.5,1.9c-0.2,0.9,2.3,1.8,2.3,1.8s-0.6-0.9,0.5,1.4c0.8,1.5,2.1,2.5,3.7,3c0,0-1.6,1.7-0.7,3c0.9,1.4,3.8,0.6,3.8,0.6
		S33.8,90.9,38.9,89.6z"/>
	<path class="st35" d="M41.9,88.2c-0.1-0.6,0.2-1.1,0.8-1.2l0,0c0.6-0.1,1.1,0.2,1.2,0.8l0.7,2.9c0.1,0.6-0.2,1.1-0.8,1.2l0,0
		c-0.6,0.1-1.1-0.2-1.2-0.8L41.9,88.2z"/>
	<path class="st35" d="M39.4,87.5c0.1-0.2,0.7-0.2,1.1,0.1l0,0c0.5,0.3,0.8,0.8,0.6,1L40.2,90c-0.1,0.2-0.7,0.2-1.1-0.1l0,0
		c-0.5-0.3-0.8-0.8-0.6-1L39.4,87.5z"/>
	<path class="st36" d="M42.5,87.8c-0.5-0.2-0.6-0.8-0.2-1.2l0,0c0.2-0.6,0.7-0.8,1.1-0.7l2,0.9c0.5,0.2,0.6,0.8,0.2,1.2l0,0
		c-0.2,0.6-0.7,0.8-1.1,0.7L42.5,87.8z"/>
	<path class="st35" d="M49.7,77.2c-0.5-0.2-0.7-0.9-0.5-1.4l0,0c0.2-0.5,0.9-0.7,1.4-0.5l0,0l2.7,1.5c0.5,0.2,0.7,0.9,0.5,1.4l0,0
		c-0.2,0.5-0.9,0.7-1.4,0.5l0,0L49.7,77.2z"/>
	<path class="st35" d="M47.4,78.6c-0.1-0.3,0.3-0.7,0.8-0.8l0,0c0.6-0.1,1,0,1.1,0.2l0.5,1.6c0.1,0.3-0.3,0.7-0.8,0.8l0,0
		c-0.6,0.1-1,0-1.1-0.2L47.4,78.6z"/>
	<path class="st36" d="M49.8,76.5c-0.3,0.2-0.9-0.1-1.1-0.7l0,0c-0.2-0.5-0.1-0.9,0.2-1.2l2-0.9c0.3-0.2,0.9,0.1,1.1,0.7l0,0
		c0.2,0.5,0.1,0.9-0.2,1.2L49.8,76.5z"/>
	<path class="st35" d="M43,72.6c-0.1-0.6,0.2-1.1,0.8-1.2l0,0c0.6-0.1,1.1,0.2,1.2,0.8l0.7,2.9c0.1,0.6-0.2,1.1-0.8,1.2l0,0
		c-0.6,0.1-1.1-0.2-1.2-0.8L43,72.6z"/>
	<path class="st35" d="M40.6,71.9c0.1-0.2,0.7-0.2,1.1,0.1l0,0c0.5,0.3,0.8,0.8,0.6,1l-0.9,1.4c-0.1,0.2-0.7,0.2-1.1-0.1l0,0
		c-0.5-0.3-0.8-0.8-0.6-1L40.6,71.9z"/>
	<path class="st36" d="M43.6,72.2C43.2,72,43,71.4,43.4,71l0,0c0.2-0.6,0.7-0.8,1.1-0.7l2,0.9c0.5,0.2,0.6,0.8,0.2,1.2l0,0
		c-0.2,0.6-0.7,0.8-1.1,0.7L43.6,72.2z"/>
	<path class="st35" d="M44.1,82.8c-0.1-0.6,0.2-1.1,0.8-1.2l0,0c0.6-0.1,1.1,0.2,1.2,0.8l0,0l0.7,2.9c0.1,0.6-0.2,1.1-0.8,1.2l0,0
		c-0.6,0.1-1.1-0.2-1.2-0.8L44.1,82.8z"/>
	<path class="st35" d="M41.6,82.2c0.1-0.2,0.7-0.2,1.1,0.1l0,0c0.5,0.3,0.8,0.8,0.6,1l-0.9,1.4c-0.1,0.2-0.7,0.2-1.1-0.1l0,0
		c-0.5-0.3-0.8-0.8-0.6-1L41.6,82.2z"/>
	<path class="st36" d="M44.6,82.5c-0.5-0.2-0.6-0.8-0.2-1.2l0,0c0.2-0.6,0.7-0.8,1.1-0.7l2,0.9c0.5,0.2,0.6,0.8,0.2,1.2l0,0
		c-0.2,0.6-0.7,0.8-1.1,0.7L44.6,82.5z"/>
	<path class="st35" d="M31,81.2c0.3-0.5,1-0.5,1.5-0.1l0,0l0,0c0.5,0.3,0.5,1,0.1,1.5l0,0l-1.9,2.4c-0.3,0.5-1,0.5-1.5,0.1l0,0
		c-0.5-0.3-0.5-1-0.1-1.5l0,0L31,81.2z"/>
	<path class="st35" d="M30.2,78.7c0.3,0,0.6,0.5,0.7,1l0,0c0,0.6-0.1,1-0.5,1l-1.7,0.2c-0.3,0-0.6-0.5-0.7-1l0,0c0-0.6,0.1-1,0.5-1
		L30.2,78.7z"/>
	<path class="st36" d="M31.6,81.4c-0.1-0.3,0.2-0.8,0.8-0.9l0,0c0.5-0.2,1,0,1.1,0.5l0.6,2.1c0.1,0.3-0.2,0.8-0.8,0.9l0,0
		c-0.5,0.2-1,0-1.1-0.5L31.6,81.4z"/>
	<path class="st35" d="M34.8,72.2c0.3-0.5,0.9-0.6,1.5-0.2l0,0c0.5,0.3,0.6,0.9,0.2,1.5l-1.7,2.4c-0.3,0.5-0.9,0.6-1.5,0.2l0,0
		c-0.5-0.3-0.6-0.9-0.2-1.5L34.8,72.2z"/>
	<path class="st35" d="M33.7,69.9c0.3,0,0.6,0.3,0.7,0.9l0,0c0.1,0.6-0.1,1-0.3,1.1l-1.6,0.3c-0.3,0-0.6-0.3-0.7-0.9l0,0
		c-0.1-0.6,0.1-1,0.3-1.1L33.7,69.9z"/>
	<path class="st36" d="M35.4,72.4c-0.1-0.3,0.2-0.8,0.7-1l0,0c0.5-0.2,1-0.1,1.2,0.3l0.7,2.1c0.1,0.3-0.2,0.8-0.7,1l0,0
		c-0.5,0.2-1,0.1-1.2-0.3L35.4,72.4z"/>
	<path class="st35" d="M32.4,64c-0.1-0.6,0.2-1.1,0.8-1.2l0,0l0,0c0.6-0.1,1.1,0.2,1.2,0.8l0.7,2.9c0.1,0.6-0.2,1.1-0.8,1.2l0,0
		c-0.6,0.1-1.1-0.2-1.2-0.8L32.4,64z"/>
	<path class="st35" d="M30.1,63.3c0.1-0.2,0.7-0.2,1.1,0.1l0,0c0.5,0.3,0.8,0.8,0.6,1l-0.9,1.4c-0.1,0.2-0.7,0.2-1.1-0.1l0,0
		c-0.5-0.3-0.8-0.8-0.6-1L30.1,63.3z"/>
	<path class="st36" d="M33,63.7c-0.5-0.2-0.6-0.8-0.2-1.2l0,0c0.2-0.6,0.7-0.8,1.1-0.7l2,0.9c0.5,0.2,0.6,0.8,0.2,1.2l0,0
		c-0.2,0.6-0.7,0.8-1.1,0.7L33,63.7z"/>
	<path class="st35" d="M40.7,65.4c0.3-0.5,1-0.6,1.5-0.2l0,0c0.5,0.3,0.6,1,0.2,1.5l-1.9,2.5c-0.3,0.5-1,0.6-1.5,0.2l0,0
		c-0.5-0.3-0.6-1-0.2-1.5L40.7,65.4z"/>
	<path class="st35" d="M39.7,63c0.3,0,0.6,0.3,0.7,0.9l0,0c0.1,0.6-0.1,1-0.5,1.1l-1.6,0.2c-0.3,0-0.6-0.3-0.7-0.9l0,0
		c-0.1-0.6,0.1-1,0.5-1.1L39.7,63z"/>
	<path class="st36" d="M41.2,65.6c-0.1-0.3,0.2-0.8,0.8-1l0,0c0.5-0.2,1,0,1.1,0.5l0.6,2.1c0.1,0.3-0.2,0.8-0.8,1l0,0
		c-0.5,0.2-1,0-1.1-0.5L41.2,65.6z"/>
	<path class="st35" d="M49.1,68.3c-0.6,0-1-0.5-1.1-1l0,0c0-0.6,0.5-1,1-1.1l0,0l3-0.1c0.6,0,1,0.5,1.1,1l0,0l0,0c0,0.6-0.5,1-1,1.1
		l0,0L49.1,68.3z"/>
	<path class="st35" d="M48,70.5c-0.2-0.2-0.1-0.7,0.3-1.1l0,0c0.3-0.5,0.9-0.6,1.1-0.3l1.2,1.1c0.2,0.2,0.1,0.7-0.3,1.1l0,0
		c-0.3,0.5-0.9,0.6-1.1,0.3L48,70.5z"/>
	<path class="st36" d="M48.9,67.7c-0.3,0.3-0.9,0.3-1.2,0l0,0c-0.5-0.2-0.7-0.8-0.5-1.1l1.2-1.8c0.3-0.3,0.9-0.3,1.2,0l0,0
		c0.5,0.2,0.7,0.8,0.5,1.1L48.9,67.7z"/>
	<path class="st35" d="M27.9,74.3c0.5-0.5,1-0.5,1.5,0l0,0l0,0c0.5,0.5,0.5,1,0,1.5l0,0l-2.1,2.1c-0.5,0.5-1,0.5-1.5,0l0,0
		c-0.5-0.5-0.5-1,0-1.5l0,0L27.9,74.3z"/>
	<path class="st35" d="M27.2,71.8c0.3,0,0.6,0.5,0.6,1l0,0c0,0.6-0.2,1-0.6,1h-1.6c-0.3,0-0.6-0.5-0.6-1l0,0c0-0.6,0.2-1,0.6-1H27.2
		z"/>
	<path class="st36" d="M28.5,74.5c-0.1-0.5,0.3-0.8,0.9-0.9l0,0c0.6-0.1,1,0.2,1.1,0.6l0.3,2.1c0.1,0.5-0.3,0.8-0.9,0.9l0,0
		c-0.6,0.1-1-0.2-1.1-0.6L28.5,74.5z"/>
	<path class="st35" d="M26.9,67.5c-0.1-0.6,0.2-1.1,0.8-1.2l0,0c0.6-0.1,1.1,0.2,1.2,0.8l0,0l0.7,2.9c0.1,0.6-0.2,1.1-0.8,1.2l0,0
		l0,0c-0.6,0.1-1.1-0.2-1.2-0.8l0,0L26.9,67.5z"/>
	<path class="st35" d="M24.5,66.7c0.1-0.2,0.7-0.2,1.1,0.1l0,0c0.5,0.3,0.8,0.8,0.6,1l-0.9,1.4c-0.1,0.2-0.7,0.2-1.1-0.1l0,0
		c-0.5-0.3-0.8-0.8-0.6-1L24.5,66.7z"/>
	<path class="st36" d="M27.5,67.2c-0.5-0.2-0.6-0.8-0.2-1.2l0,0c0.2-0.6,0.7-0.8,1.1-0.7l2,0.9c0.5,0.2,0.6,0.8,0.2,1.2l0,0
		c-0.2,0.6-0.7,0.8-1.1,0.7L27.5,67.2z"/>
	<path class="st35" d="M40,77.2c0.2-0.6,0.8-0.8,1.4-0.6l0,0l0,0c0.6,0.2,0.8,0.8,0.6,1.4l0,0l-1.2,2.8c-0.2,0.6-0.8,0.8-1.4,0.6
		l0,0l0,0c-0.6-0.2-0.8-0.8-0.6-1.4L40,77.2z"/>
	<path class="st35" d="M38.4,75.2c0.2-0.1,0.7,0.2,0.9,0.8l0,0c0.2,0.6,0.1,1-0.1,1.1l-1.5,0.6c-0.2,0.1-0.7-0.2-0.9-0.8l0,0
		c-0.2-0.6-0.1-1,0.1-1.1L38.4,75.2z"/>
	<path class="st36" d="M40.6,77.3c-0.2-0.3,0-0.9,0.6-1.1l0,0c0.3-0.3,0.9-0.2,1.2,0.1l1.1,1.9c0.2,0.3,0,0.9-0.6,1.1l0,0
		c-0.3,0.3-0.9,0.2-1.2-0.1L40.6,77.3z"/>
	<path class="st35" d="M37.3,84.1c0.5-0.3,1.1-0.3,1.5,0.1l0,0l0,0c0.3,0.5,0.3,1-0.1,1.5l0,0l-2.4,2c-0.5,0.3-1,0.3-1.5-0.1l0,0
		l0,0c-0.3-0.5-0.3-1,0.1-1.5l0,0L37.3,84.1z"/>
	<path class="st35" d="M36.8,81.6c0.3,0,0.5,0.5,0.5,1l0,0c0,0.6-0.3,1-0.7,1L35,83.5c-0.3,0-0.5-0.5-0.5-1l0,0c0-0.6,0.3-1,0.7-1
		L36.8,81.6z"/>
	<path class="st36" d="M37.9,84.4c0-0.5,0.5-0.8,1-0.8l0,0c0.6,0,1,0.2,1,0.7l0.1,2.3c0,0.5-0.5,0.8-1,0.8l0,0c-0.6,0-1-0.2-1-0.7
		L37.9,84.4z"/>
	<path class="st30" d="M47.8,43.9L46.2,45c-0.7,0.5-0.9,1.4-0.5,2c0.1,0.2,0.3,0.3,0.6,0.5l0,0c0.7,0.3,1.6,0.1,1.9-0.7
		c0.1-0.2,0.1-0.5,0.1-0.8l0-1.8c0-0.2-0.2-0.3-0.5-0.3C47.9,43.9,47.9,43.9,47.8,43.9z"/>
	<path class="st30" d="M46.8,50.7l-1.6,1.1c-0.7,0.5-0.9,1.4-0.5,2c0.1,0.2,0.3,0.3,0.6,0.5l0,0c0.7,0.3,1.6,0.1,1.9-0.7
		c0.1-0.2,0.1-0.5,0.1-0.8l-0.1-1.9c0-0.2-0.2-0.3-0.5-0.3C46.9,50.6,46.9,50.6,46.8,50.7z"/>
	<path class="st30" d="M55.7,48.9l-0.6,1.9c-0.2,0.8,0.2,1.6,1,1.8c0.2,0.1,0.5,0.1,0.8,0l0,0c0.8-0.2,1.2-1,1-1.8
		c-0.1-0.2-0.2-0.5-0.3-0.7l-1.4-1.5c-0.1-0.1-0.3-0.1-0.6,0C55.7,48.8,55.7,48.8,55.7,48.9z"/>
	<path class="st30" d="M43.9,45.2L43,47c-0.3,0.7-0.1,1.6,0.7,1.9c0.2,0.1,0.5,0.1,0.8,0.1l0,0c0.8,0,1.5-0.8,1.4-1.6
		c0-0.2-0.1-0.5-0.2-0.7l-1-1.7c-0.1-0.2-0.3-0.2-0.6-0.1C43.9,45,43.9,45.2,43.9,45.2z"/>
	<path class="st30" d="M50,43.1l-1.4-1.5c-0.6-0.6-1.5-0.6-2,0c-0.2,0.2-0.3,0.5-0.3,0.7l0,0c-0.2,0.8,0.2,1.6,1,1.8
		c0.2,0.1,0.5,0.1,0.8,0l1.9-0.5c0.2,0,0.3-0.2,0.3-0.5C50.2,43.2,50.2,43.2,50,43.1z"/>
	<path class="st30" d="M51.3,54.4l1.9-0.3c0.8-0.1,1.4-0.9,1.2-1.7c0-0.2-0.1-0.5-0.3-0.7l0,0c-0.6-0.7-1.5-0.7-2-0.2
		c-0.2,0.1-0.3,0.3-0.5,0.6l-0.7,1.8c-0.1,0.2,0,0.5,0.2,0.5C51.2,54.4,51.3,54.4,51.3,54.4z"/>
	<path class="st30" d="M53.3,44.5l0.9,1.8c0.3,0.7,1.2,1,1.9,0.7c0.2-0.1,0.5-0.3,0.6-0.5l0,0c0.5-0.7,0.2-1.6-0.5-2
		c-0.2-0.1-0.5-0.2-0.7-0.2l-1.9-0.1c-0.2,0-0.3,0.1-0.5,0.3C53.2,44.4,53.3,44.5,53.3,44.5z"/>
	<path class="st30" d="M50.6,46.8L49,48c-0.7,0.5-0.9,1.4-0.5,2c0.1,0.2,0.3,0.3,0.6,0.5l0,0c0.7,0.3,1.6,0.1,1.9-0.7
		c0.1-0.2,0.1-0.5,0.1-0.8l0-1.9c0-0.2-0.2-0.3-0.5-0.3C50.7,46.7,50.6,46.7,50.6,46.8z"/>
	<path class="st30" d="M52.1,40.9L50.5,42c-0.7,0.5-0.9,1.4-0.5,2c0.1,0.2,0.3,0.3,0.6,0.5l0,0c0.7,0.3,1.6,0.1,1.9-0.7
		c0.1-0.2,0.1-0.5,0.1-0.8l-0.1-1.9c0-0.2-0.2-0.3-0.5-0.3C52.2,40.8,52.2,40.9,52.1,40.9z"/>
	<circle class="st28" cx="69" cy="69.5" r="7.3"/>
</g>
</svg>
