<svg xmlns="http://www.w3.org/2000/svg" width="48.565" height="50.613" viewBox="0 0 48.565 50.613">
  <g id="Group_3249" data-name="Group 3249" transform="translate(-201.604 -199.308)">
    <g id="Group_3242" data-name="Group 3242" transform="translate(201.604 199.308)">
      <g id="Group_3241" data-name="Group 3241">
        <path id="Path_12983" data-name="Path 12983" d="M247.827,225.27a1.484,1.484,0,0,1,0-1.311l1.888-3.862a4.393,4.393,0,0,0-1.9-5.834l-3.8-2.015a1.483,1.483,0,0,1-.771-1.061l-.742-4.233a4.394,4.394,0,0,0-4.963-3.606l-4.256.6a1.484,1.484,0,0,1-1.247-.405l-3.089-2.989a4.394,4.394,0,0,0-6.135,0l-3.089,2.989a1.485,1.485,0,0,1-1.247.405l-4.256-.6a4.394,4.394,0,0,0-4.963,3.606l-.742,4.234a1.484,1.484,0,0,1-.771,1.061l-3.8,2.015a4.394,4.394,0,0,0-1.9,5.835l1.888,3.862a1.484,1.484,0,0,1,0,1.311l-1.888,3.862a4.394,4.394,0,0,0,1.9,5.835l3.8,2.015a1.484,1.484,0,0,1,.771,1.061l.742,4.234a4.391,4.391,0,0,0,4.331,3.65,4.535,4.535,0,0,0,.632-.045l4.256-.6a1.483,1.483,0,0,1,1.247.405l3.089,2.988a4.394,4.394,0,0,0,6.135,0l3.089-2.988a1.485,1.485,0,0,1,1.247-.405l4.256.6a4.393,4.393,0,0,0,4.963-3.606l.743-4.234a1.482,1.482,0,0,1,.77-1.061l3.8-2.015a4.394,4.394,0,0,0,1.9-5.835Zm-1.376,7.118-3.8,2.015a4.385,4.385,0,0,0-2.278,3.135l-.742,4.234a1.487,1.487,0,0,1-1.679,1.22l-4.256-.6a4.382,4.382,0,0,0-3.685,1.2l-3.089,2.988a1.487,1.487,0,0,1-2.076,0l-3.089-2.989a4.379,4.379,0,0,0-3.057-1.242,4.461,4.461,0,0,0-.629.045l-4.256.6a1.487,1.487,0,0,1-1.679-1.22l-.743-4.233a4.382,4.382,0,0,0-2.277-3.135l-3.8-2.015a1.487,1.487,0,0,1-.641-1.974l1.888-3.862a4.384,4.384,0,0,0,0-3.875l-1.888-3.862a1.487,1.487,0,0,1,.641-1.974l3.8-2.015a4.383,4.383,0,0,0,2.277-3.135l.743-4.233a1.486,1.486,0,0,1,1.679-1.22l4.256.6a4.384,4.384,0,0,0,3.685-1.2l3.089-2.989a1.487,1.487,0,0,1,2.076,0l3.089,2.989a4.382,4.382,0,0,0,3.685,1.2l4.256-.6a1.486,1.486,0,0,1,1.679,1.22l.743,4.233a4.383,4.383,0,0,0,2.278,3.135l3.8,2.015a1.487,1.487,0,0,1,.641,1.974l-1.888,3.862a4.381,4.381,0,0,0,0,3.875l1.888,3.862A1.487,1.487,0,0,1,246.451,232.388Z" transform="translate(-201.604 -199.308)" fill="#64a51c"/>
      </g>
    </g>
    <g id="Group_3244" data-name="Group 3244" transform="translate(214.793 213.523)">
      <g id="Group_3243" data-name="Group 3243">
        <path id="Path_12984" data-name="Path 12984" d="M252.909,231.579a1.46,1.46,0,0,0-2.064,0L231.58,250.845a1.46,1.46,0,1,0,2.064,2.064l19.265-19.265A1.46,1.46,0,0,0,252.909,231.579Z" transform="translate(-231.152 -231.152)" fill="#64a51c"/>
      </g>
    </g>
    <g id="Group_3246" data-name="Group 3246" transform="translate(214.696 211.479)">
      <g id="Group_3245" data-name="Group 3245" transform="translate(0 0)">
        <path id="Path_12985" data-name="Path 12985" d="M236.285,226.573a5.352,5.352,0,1,0,5.352,5.352A5.358,5.358,0,0,0,236.285,226.573Zm0,7.784a2.433,2.433,0,1,1,2.432-2.433A2.436,2.436,0,0,1,236.285,234.357Z" transform="translate(-230.933 -226.573)" fill="#64a51c"/>
      </g>
    </g>
    <g id="Group_3248" data-name="Group 3248" transform="translate(226.372 227.047)">
      <g id="Group_3247" data-name="Group 3247" transform="translate(0 0)">
        <path id="Path_12986" data-name="Path 12986" d="M262.444,261.451A5.352,5.352,0,1,0,267.8,266.8,5.358,5.358,0,0,0,262.444,261.451Zm0,7.784a2.433,2.433,0,1,1,2.432-2.433A2.436,2.436,0,0,1,262.444,269.235Z" transform="translate(-257.092 -261.451)" fill="#64a51c"/>
      </g>
    </g>
  </g>
</svg>
