<?xml version="1.0" encoding="utf-8"?>
<!-- Generator: Adobe Illustrator 25.0.0, SVG Export Plug-In . SVG Version: 6.00 Build 0)  -->
<svg version="1.1" id="Layer_1" xmlns="http://www.w3.org/2000/svg" xmlns:xlink="http://www.w3.org/1999/xlink" x="0px" y="0px"
	 viewBox="0 0 512 512" style="enable-background:new 0 0 512 512;" xml:space="preserve">
<style type="text/css">
	.st0{fill:#FFFFFF;}
</style>
<path class="st0" d="M268,0C128.3,0,57.8,100.2,57.8,183.7c0,50.6,19.2,95.6,60.2,112.3c6.7,2.8,12.8,0.1,14.7-7.4
	c1.4-5.1,4.6-18.2,6-23.6c2-7.4,1.2-9.9-4.2-16.4c-11.8-14-19.4-32-19.4-57.7c0-74.3,55.6-140.8,144.8-140.8
	c79,0,122.4,48.3,122.4,112.7c0,84.8-37.5,156.4-93.2,156.4c-30.8,0-53.8-25.4-46.4-56.6c8.8-37.3,26-77.5,26-104.4
	c0-24.1-12.9-44.1-39.7-44.1c-31.5,0-56.7,32.5-56.7,76.1c0,27.8,9.4,46.5,9.4,46.5S149.4,373.1,143.8,397
	c-11.2,47.6-1.7,105.9-0.9,111.7c0.5,3.5,5,4.3,7,1.7c2.9-3.8,40.4-50,53.1-96.3c3.6-13.1,20.7-80.8,20.7-80.8
	c10.2,19.5,40.1,36.6,71.8,36.6c94.5,0,158.7-86.2,158.7-201.5C454.2,81.2,380.3,0,268,0z"/>
</svg>
