<?xml version="1.0" encoding="utf-8"?>
<!-- Generator: Adobe Illustrator 25.0.0, SVG Export Plug-In . SVG Version: 6.00 Build 0)  -->
<svg version="1.1" id="Layer_1" xmlns="http://www.w3.org/2000/svg" xmlns:xlink="http://www.w3.org/1999/xlink" x="0px" y="0px"
	 viewBox="0 0 100.1 100.1" style="enable-background:new 0 0 100.1 100.1;" xml:space="preserve">
<g id="Layer_3">
	<path d="M33.7,69.9c-18,0-32.6-14.6-32.6-32.6S15.8,4.7,33.7,4.7s32.6,14.6,32.6,32.6S51.7,69.9,33.7,69.9z M33.7,11.3
		c-14.4,0-26,11.7-26,26s11.7,26,26,26s26-11.7,26-26S48.1,11.3,33.7,11.3z"/>
	<path d="M89.1,95.1c-2.3,0-4.5-0.8-6.3-2.3L62.9,76c-4.1-3.5-4.7-9.6-1.2-13.8c3.5-4.1,9.6-4.7,13.8-1.2l20,16.7
		c4.1,3.5,4.7,9.6,1.2,13.8C94.7,93.8,92,95.1,89.1,95.1z M69.1,65.3h-0.3c-1.8,0.2-3.1,1.7-3,3.5c0.1,0.9,0.5,1.7,1.2,2.2l20,16.7
		c1.4,1.2,3.4,1,4.6-0.4c0,0,0,0,0,0c0.6-0.7,0.8-1.5,0.7-2.4c-0.1-0.9-0.5-1.7-1.2-2.2L71.2,66C70.6,65.6,69.9,65.3,69.1,65.3z"/>
	<path d="M63,66.6c-0.8,0-1.5-0.3-2.1-0.7l-7.7-6.3c-1.4-1.2-1.6-3.2-0.4-4.6c1.2-1.4,3.2-1.6,4.6-0.4l0,0l7.6,6.3
		c1.4,1.1,1.6,3.2,0.4,4.6c0,0,0,0,0,0C64.9,66.2,64,66.6,63,66.6z"/>
</g>
</svg>
