<?xml version="1.0" encoding="utf-8"?>
<!-- Generator: Adobe Illustrator 25.0.0, SVG Export Plug-In . SVG Version: 6.00 Build 0)  -->
<svg version="1.1" id="Layer_1" xmlns="http://www.w3.org/2000/svg" xmlns:xlink="http://www.w3.org/1999/xlink" x="0px" y="0px"
	 viewBox="0 0 100 100" style="enable-background:new 0 0 100 100;" xml:space="preserve">
<style type="text/css">
	.st0{display:none;}
	.st1{display:inline;}
	.st2{fill:#FF826E;}
	.st3{fill:#FC6E51;}
	.st4{fill:#FCD770;}
	.st5{fill:#E6E9ED;}
	.st6{fill:#FFC729;}
	.st7{fill:#FFEAA7;}
	.st8{fill:#CCD1D9;}
</style>
<g id="Layer_1_1_" class="st0">
	<g class="st1">
		<g>
			<polygon class="st2" points="59,63.3 61.8,45.6 61.8,44.1 8.7,44.1 8.7,45.6 11.5,63.3 13.7,78 16.1,94.3 54.4,94.3 			"/>
			<polygon class="st3" points="57,76.6 13.4,76.6 13.7,78 14.1,81 56.4,81 			"/>
			<path class="st3" d="M58.8,64.8c-3.2,0-5.8,2.7-5.8,5.9c0,0.3,0,0.5,0.1,0.8c-1.8,1-3,2.9-3,5.1h-3v9.6l4.1,8.2h3.3L58.8,64.8z"
				/>
			<path class="st4" d="M60.3,67.7v-1.4c0-1.6-1.3-3-3-3h-8.9l-0.7-0.7c-3.3-3.3-7.9-5.2-12.6-5.2l0,0c-4.7,0-9.3,1.9-12.6,5.2
				L22,63.3h-8.9c-1.6,0-3,1.3-3,3v8.9c0,1.6,1.3,3,3,3h47.2C60.3,78.2,60.3,67.7,60.3,67.7z"/>
			<polygon class="st5" points="50,79.5 91.3,79.5 91.3,85.4 86.9,94.3 54.4,94.3 50,85.4 			"/>
			<path class="st6" d="M60.3,67.7v-1.4c0-0.6-0.2-1.1-0.4-1.5c-0.3,0-0.5,0.1-0.8,0.1h-0.2c-3.3,0-5.9,2.6-5.9,5.9
				c0,0.3,0,0.5,0.1,0.8c-1.8,1-3,2.9-3,5.1c0,0.5,0.1,1,0.2,1.5h10.1L60.3,67.7L60.3,67.7z"/>
			<path class="st7" d="M76.6,73.6h8.9c1.6,0,3,1.3,3,3l0,0c0,1.6-1.3,3-3,3H55.9c-1.6,0-3-1.3-3-3l0,0c0-1.6,1.3-3,3-3h8.9H76.6z"
				/>
			<path class="st7" d="M58.9,73.6c-1.6,0-3-1.3-3-3l0,0c0-1.6,1.3-3,3-3h0.2c5.3,0,10.3-2.8,13-7.4l0,0l0,0c4.3,0,8,3,8.8,7.2v0.1
				h1.5c1.6,0,3,1.3,3,3l0,0c0,1.6-1.3,3-3,3H58.9V73.6z"/>
			<polygon class="st8" points="50,85.4 81,85.4 83.9,85.4 91.3,85.4 91.3,79.5 50,79.5 			"/>
			<polygon class="st4" points="13.1,44.1 10.2,5.7 16.1,5.7 19,44.1 			"/>
			<rect x="23.4" y="14.6" class="st4" width="5.9" height="29.5"/>
			<rect x="41.1" y="5.7" class="st4" width="5.9" height="38.4"/>
			<polygon class="st4" points="47,20.5 47,44.1 53,44.1 55.2,18.8 			"/>
			<polygon class="st6" points="50,44.1 53,44.1 55.2,18.8 52.2,19.4 			"/>
			<polygon class="st4" points="53,44.1 55.9,11.6 61.8,13.1 58.9,44.1 			"/>
			<polygon class="st4" points="29.3,20.5 29.3,44.1 36.7,44.1 34.7,20.5 			"/>
			<polygon class="st6" points="33.8,44.1 36.7,44.1 34.7,20.5 31.8,20.5 			"/>
			<polygon class="st4" points="41.1,7.2 41.1,44.1 36.7,44.1 33.8,8.7 			"/>
			<polygon class="st6" points="23.4,27.9 23.4,44.1 19,44.1 17.5,26.4 			"/>
			<rect x="29.3" y="20.5" class="st6" width="3" height="23.6"/>
			<polygon class="st6" points="38.2,44.1 41.1,44.1 41.1,7.2 38.2,7.8 			"/>
			<polygon class="st6" points="50,19.9 47,20.5 47,44.1 50,44.1 			"/>
			<polygon class="st6" points="54.4,41.1 53.2,41.1 18.8,41.1 17.5,41.1 12.9,41.1 13.1,44.1 17.5,44.1 19,44.1 53,44.1 54.4,44.1 
				58.9,44.1 59.1,41.1 			"/>
		</g>
		<path d="M89.6,78c0.2-0.5,0.3-1,0.3-1.5c0-2-1.4-3.7-3.3-4.3c0.2-0.5,0.3-1.1,0.3-1.6c0-2.4-2-4.4-4.4-4.4h-0.3
			c-1.3-4.3-5.4-7.4-10-7.4h-0.8L71,59.5c-2,3.3-5.3,5.6-9.1,6.4c-0.1-1.1-0.5-2.1-1.3-2.8l2.8-17.3v-3.2h-2.8L63.4,12l-8.8-2.2
			l-0.7,7.8l-5.4,1.1V4.2h-8.9V6l-7.5,1.5l1,11.5h-2.3v-5.9H22V26l-3-0.8l-1.6-21H8.6l3,38.4H7.2v3L10,63.1
			c-0.8,0.8-1.3,1.9-1.3,3.1v8.9c0,2.2,1.6,4,3.7,4.4l2.4,16.3h38.7h0.9h33.4l5-10V78H89.6z M72.9,61.8c3.2,0.3,5.9,2.8,6.6,6
			l0.3,1.3h2.7c0.8,0,1.5,0.7,1.5,1.5s-0.7,1.5-1.5,1.5h-5.9v3h8.9c0.8,0,1.5,0.7,1.5,1.5s-0.7,1.5-1.5,1.5H55.9
			c-0.8,0-1.5-0.7-1.5-1.5s0.7-1.5,1.5-1.5h8.9v-3h-5.9c-0.8,0-1.5-0.7-1.5-1.5s0.7-1.5,1.5-1.5h0.2C64.6,69.2,69.8,66.4,72.9,61.8z
			 M60.2,14.2l-2.7,28.4h-2.9l2.6-29.1L60.2,14.2z M53.6,20.7l-2,21.9h-3.1V21.7L53.6,20.7z M45.6,7.2v35.4h-3V7.2H45.6z M39.7,9
			v33.6h-1.6L35.3,9.9L39.7,9z M33.4,22l1.7,20.7h-4.3V22H33.4z M27.9,16.1v26.6h-3V16.1H27.9z M22,29v13.6h-1.6l-1.1-14.3L22,29z
			 M11.7,7.2h2.9l2.7,35.4h-2.9L11.7,7.2z M10.2,45.6h50.1l-2.6,16.3c-0.1,0-0.2,0-0.3,0h-8.2l-0.3-0.3c-3.6-3.6-8.5-5.7-13.6-5.7
			s-10,2-13.6,5.7l-0.3,0.3h-8.2c-0.1,0-0.2,0-0.3,0L10.2,45.6z M11.6,75.1v-8.9c0-0.8,0.7-1.5,1.5-1.5h9.5l1.1-1.1
			c3.1-3.1,7.2-4.8,11.6-4.8s8.5,1.7,11.6,4.8l1.1,1.1h9.5c0.8,0,1.5,0.7,1.5,1.5c-2.4,0-4.4,2-4.4,4.4c0,0.6,0.1,1.1,0.3,1.6
			c-1.9,0.5-3.3,2.2-3.3,4.3H13.1C12.3,76.6,11.6,75.9,11.6,75.1z M17.3,92.8l-2-13.3h33.1v6.3l3.5,7H17.3z M86,92.8H55.3l-3-5.9H81
			v-3H51.5v-3h4.4h29.5h4.4v3h-5.9v3h5L86,92.8z"/>
	</g>
</g>
<g id="Layer_2_1_">
	<g>
		<polygon class="st2" points="58.4,60.6 60.9,44.8 60.9,43.4 13.4,43.4 13.4,44.8 16,60.6 17.9,73.8 20,88.3 54.3,88.3 		"/>
		<polygon class="st3" points="56.6,72.5 17.7,72.5 17.9,73.8 18.3,76.4 56,76.4 		"/>
		<path class="st3" d="M58.2,61.9c-2.9,0-5.2,2.4-5.2,5.3c0,0.3,0,0.4,0.1,0.7c-1.6,0.9-2.7,2.6-2.7,4.6h-2.7v8.6l3.7,7.3h2.9
			L58.2,61.9z"/>
		<path class="st4" d="M59.6,64.5v-1.3c0-1.4-1.2-2.7-2.7-2.7h-8L48.3,60c-2.9-2.9-7.1-4.6-11.3-4.6l0,0c-4.2,0-8.3,1.7-11.3,4.6
			l-0.5,0.6h-8c-1.4,0-2.7,1.2-2.7,2.7v8c0,1.4,1.2,2.7,2.7,2.7h42.2L59.6,64.5L59.6,64.5z"/>
		<polygon class="st5" points="50.4,75.1 87.3,75.1 87.3,80.3 83.4,88.3 54.3,88.3 50.4,80.3 		"/>
		<path class="st6" d="M59.6,64.5v-1.3c0-0.5-0.2-1-0.4-1.3c-0.3,0-0.4,0.1-0.7,0.1h-0.2c-2.9,0-5.3,2.3-5.3,5.3
			c0,0.3,0,0.4,0.1,0.7c-1.6,0.9-2.7,2.6-2.7,4.6c0,0.4,0.1,0.9,0.2,1.3h9L59.6,64.5L59.6,64.5z"/>
		<path class="st7" d="M74.1,69.8h8c1.4,0,2.7,1.2,2.7,2.7l0,0c0,1.4-1.2,2.7-2.7,2.7H55.7c-1.4,0-2.7-1.2-2.7-2.7l0,0
			c0-1.4,1.2-2.7,2.7-2.7h8H74.1z"/>
		<path class="st7" d="M58.3,69.8c-1.4,0-2.7-1.2-2.7-2.7l0,0c0-1.4,1.2-2.7,2.7-2.7h0.2c4.7,0,9.2-2.5,11.6-6.6l0,0l0,0
			c3.8,0,7.1,2.7,7.9,6.4v0.1h1.3c1.4,0,2.7,1.2,2.7,2.7l0,0c0,1.4-1.2,2.7-2.7,2.7L58.3,69.8L58.3,69.8z"/>
		<polygon class="st8" points="50.4,80.3 78.1,80.3 80.7,80.3 87.3,80.3 87.3,75.1 50.4,75.1 		"/>
		<polygon class="st4" points="17.4,43.4 14.7,9.1 20,9.1 22.7,43.4 		"/>
		<rect x="26.6" y="17.1" class="st4" width="5.3" height="26.4"/>
		<rect x="42.4" y="9.1" class="st4" width="5.3" height="34.3"/>
		<polygon class="st4" points="47.7,22.3 47.7,43.4 53,43.4 55,20.9 		"/>
		<polygon class="st6" points="50.4,43.4 53,43.4 55,20.9 52.4,21.5 		"/>
		<polygon class="st4" points="53,43.4 55.7,14.4 60.9,15.7 58.3,43.4 		"/>
		<polygon class="st4" points="31.9,22.3 31.9,43.4 38.5,43.4 36.7,22.3 		"/>
		<polygon class="st6" points="35.8,43.4 38.5,43.4 36.7,22.3 34.1,22.3 		"/>
		<polygon class="st4" points="42.4,10.5 42.4,43.4 38.5,43.4 35.8,11.8 		"/>
		<polygon class="st6" points="26.6,29 26.6,43.4 22.7,43.4 21.4,27.6 		"/>
		<rect x="31.9" y="22.3" class="st6" width="2.7" height="21.1"/>
		<polygon class="st6" points="39.9,43.4 42.4,43.4 42.4,10.5 39.9,11 		"/>
		<polygon class="st6" points="50.4,21.8 47.7,22.3 47.7,43.4 50.4,43.4 		"/>
		<polygon class="st6" points="54.3,40.8 53.3,40.8 22.4,40.8 21.4,40.8 17.2,40.8 17.4,43.4 21.4,43.4 22.7,43.4 53,43.4 
			54.3,43.4 58.3,43.4 58.5,40.8 		"/>
	</g>
</g>
</svg>
