<?xml version="1.0" encoding="utf-8"?>
<!-- Generator: Adobe Illustrator 25.0.0, SVG Export Plug-In . SVG Version: 6.00 Build 0)  -->
<svg version="1.1" xmlns="http://www.w3.org/2000/svg" xmlns:xlink="http://www.w3.org/1999/xlink" x="0px" y="0px"
	 viewBox="0 0 100 100" style="enable-background:new 0 0 100 100;" xml:space="preserve">
<style type="text/css">
	.st0{display:none;}
	.st1{display:inline;}
	.st2{fill:#FBAB68;}
	.st3{fill:#EA8E49;}
	.st4{fill:#333333;}
	.st5{fill:#F7F7F7;}
	.st6{fill:#EDEDED;}
	.st7{fill:#FFD766;}
	.st8{fill:#FFC533;}
	.st9{fill:#E0E0E0;}
	.st10{fill:#C9C9C9;}
	.st11{fill:#9CCC65;}
	.st12{fill:#ED4848;}
	.st13{fill:#BFC0C1;}
	.st14{fill:#C1C1C1;}
	.st15{fill:#55C2FF;}
	.st16{fill:#A9DAFF;}
	.st17{fill:#97D7FF;}
	.st18{fill:#ACDBFC;}
	.st19{fill:#6EC8FF;}
	.st20{fill:#BDE4FF;}
</style>
<g id="Layer_1" class="st0">
	<g class="st1">
		<g>
			<g>
				<path class="st2" d="M94.5,13.7L94.5,13.7c-1.9-1.9-4.9-1.8-6.7,0.1L54.6,48.5c-5.4-3-11.9-1.3-16.8,3.6c-2.9,3-5.1,9.1-6,14.9
					c-0.5,2.9-0.3,6.3,1.5,8.2c1.8,1.8,5.3,2,8.1,1.6c5.8-0.9,11.9-3.1,14.8-6.1c4.9-4.9,6.6-11.5,3.6-16.9l34.6-33.4
					C96.3,18.5,96.3,15.5,94.5,13.7z"/>
				<path class="st3" d="M94.5,13.7L94.5,13.7c-0.4-0.4-0.8-0.7-1.3-0.9c0.9,1.8,0.6,4-0.9,5.4L58.5,50.9c-0.5,0.4-0.6,1.1-0.3,1.7
					c2.3,5.2,0.6,11.4-4.1,16c-2.9,3-9,5.2-14.8,6.1C37,75,34.3,75,32.4,74c0.2,0.5,0.5,0.9,0.9,1.2c1.8,1.8,5.3,2,8.1,1.6
					c5.8-0.9,11.9-3.1,14.8-6.1c4.9-4.9,6.6-11.5,3.6-16.9l34.6-33.4C96.3,18.5,96.3,15.5,94.5,13.7z"/>
				<path class="st4" d="M38.8,78.1c-2.1,0-4.6-0.4-6.3-2.1c-2.6-2.6-2.1-7.2-1.8-9.1c0.8-5.3,2.9-12.1,6.3-15.5
					c5.2-5.2,11.9-6.8,17.4-4.2L87,13c1.1-1.1,2.5-1.8,4.1-1.8c1.6,0,3,0.6,4.1,1.7l0,0c1.1,1.1,1.7,2.6,1.7,4.1
					c0,1.6-0.6,3-1.8,4.1L61.2,54c2.6,5.5,1,12.3-4.1,17.5c-3.4,3.4-10.2,5.6-15.4,6.4C40.9,78,39.9,78.1,38.8,78.1z M48.9,48.1
					c-3.5,0-7.2,1.6-10.3,4.8c-2.5,2.5-4.8,8.2-5.7,14.4c-0.4,2.5-0.3,5.7,1.2,7.3c1.5,1.5,4.7,1.6,7.2,1.3c6.1-1,11.7-3.3,14.3-5.8
					c4.7-4.7,6-10.9,3.4-15.7c-0.2-0.4-0.2-1,0.2-1.3l34.6-33.4c0.7-0.7,1.1-1.6,1.1-2.6c0-1-0.4-1.9-1-2.6
					c-0.7-0.7-1.6-1.1-2.6-1.1c0,0,0,0,0,0c-1,0-1.9,0.4-2.6,1.1L55.4,49.3c-0.3,0.4-0.9,0.4-1.3,0.2C52.5,48.6,50.7,48.1,48.9,48.1
					z"/>
			</g>
			<g>
				<path class="st5" d="M49.1,94L49.1,94c-24.8,0-45-20.1-45-45v-7.4c0-1.2,1-2.1,2.1-2.1h85.6c1.2,0,2.1,1,2.1,2.1V49
					C94,73.8,73.9,94,49.1,94z"/>
				<path class="st6" d="M8,48.9v-9.5H6.3c-1.2,0-2.1,1-2.1,2.1v7.3c0,24.9,20.1,45,45,45l0,0c0.6,0,1.3,0,1.9,0
					C27.1,92.9,8,73.2,8,48.9z"/>
				<path class="st4" d="M49.1,95c-12.3,0-23.9-4.8-32.5-13.5C7.9,72.9,3.1,61.3,3.1,49v-7.4c0-1.8,1.4-3.2,3.2-3.2h85.6
					c1.8,0,3.2,1.4,3.2,3.2V49c0,12.3-4.8,23.9-13.5,32.5S61.4,95,49.1,95z M6.3,40.6c-0.6,0-1.1,0.5-1.1,1.1V49
					c0,24.2,19.7,43.9,43.9,43.9l0,0C73.3,92.9,93,73.2,93,49v-7.4c0-0.6-0.5-1.1-1.1-1.1L6.3,40.6L6.3,40.6z"/>
			</g>
			<g>
				<path class="st7" d="M49.1,94L49.1,94c24.8,0,45-20.2,45-45H4.1C4.1,73.8,24.3,94,49.1,94z"/>
				<path class="st8" d="M8,48.9H4.1c0,24.9,20.1,45,45,45l0,0c0.6,0,1.3,0,1.9,0C27.1,92.9,8,73.2,8,48.9z"/>
				<path class="st4" d="M49.1,95L49.1,95c-12.3,0-23.9-4.8-32.5-13.5C7.9,72.8,3.1,61.3,3.1,48.9c0-0.6,0.5-1.1,1.1-1.1H94
					c0.6,0,1.1,0.5,1.1,1.1c0,12.3-4.8,23.9-13.5,32.6C72.9,90.2,61.4,95,49.1,95z M5.2,50c0.6,23.7,20,42.9,43.9,42.9
					C72.9,92.9,92.4,73.8,93,50H5.2z"/>
			</g>
			<g>
				<rect x="27.7" y="89.1" class="st9" width="42.7" height="10"/>
				<rect x="27.7" y="89.1" class="st10" width="3.8" height="10"/>
				<path class="st4" d="M70.4,100.1H27.7c-0.6,0-1.1-0.5-1.1-1.1v-10c0-0.6,0.5-1.1,1.1-1.1h42.7c0.6,0,1.1,0.5,1.1,1.1v10
					C71.5,99.7,71,100.1,70.4,100.1z M28.8,98h40.6v-7.8H28.8V98z"/>
			</g>
			<g>
				<path class="st4" d="M61.5,68.8c-0.6,0-1.1-0.5-1.1-1.1v-2c0-0.6,0.5-1.1,1.1-1.1c0.6,0,1.1,0.5,1.1,1.1v2
					C62.6,68.3,62.1,68.8,61.5,68.8z"/>
				<path class="st4" d="M46.5,83.8c-0.6,0-1.1-0.5-1.1-1.1v-2c0-0.6,0.5-1.1,1.1-1.1s1.1,0.5,1.1,1.1v2
					C47.6,83.3,47.1,83.8,46.5,83.8z"/>
				<path class="st4" d="M20.9,73.1c-0.6,0-1.1-0.5-1.1-1.1v-2c0-0.6,0.5-1.1,1.1-1.1c0.6,0,1.1,0.5,1.1,1.1v2
					C22,72.6,21.5,73.1,20.9,73.1z"/>
				<path class="st4" d="M33.7,58.1c-0.6,0-1.1-0.5-1.1-1.1v-2c0-0.6,0.5-1.1,1.1-1.1c0.6,0,1.1,0.5,1.1,1.1v2
					C34.8,57.6,34.3,58.1,33.7,58.1z"/>
				<path class="st4" d="M76.6,77.4c-0.6,0-1.1-0.5-1.1-1.1v-2c0-0.6,0.5-1.1,1.1-1.1s1.1,0.5,1.1,1.1v2
					C77.7,76.9,77.2,77.4,76.6,77.4z"/>
			</g>
			<g>
				<path class="st11" d="M52.5,77.3c0,2.9,2.4,5.3,5.3,5.3c2.9,0,5.3-2.4,5.3-5.3H52.5z"/>
				<path class="st4" d="M57.9,83.8c-3.5,0-6.4-2.9-6.4-6.4c0-0.6,0.5-1.1,1.1-1.1h10.7c0.6,0,1.1,0.5,1.1,1.1
					C64.3,80.9,61.4,83.8,57.9,83.8z M53.7,78.4c0.5,1.8,2.1,3.2,4.1,3.2c2,0,3.7-1.4,4.1-3.2H53.7z"/>
			</g>
			<g>
				<path class="st12" d="M34.9,78.8c-2.1,0-3.8-1.7-3.8-3.8c0-2.1,1.7-3.8,3.8-3.8c2.1,0,3.8,1.7,3.8,3.8
					C38.7,77.1,37,78.8,34.9,78.8z"/>
				<path class="st4" d="M34.9,79.9c-2.7,0-4.9-2.2-4.9-4.9c0-2.7,2.2-4.9,4.9-4.9c2.7,0,4.9,2.2,4.9,4.9
					C39.8,77.7,37.6,79.9,34.9,79.9z M34.9,72.2c-1.5,0-2.8,1.2-2.8,2.8s1.2,2.8,2.8,2.8c1.5,0,2.8-1.2,2.8-2.8S36.4,72.2,34.9,72.2
					z"/>
			</g>
			<g>
				<path class="st12" d="M74.3,65.8c-2.1,0-3.8-1.7-3.8-3.8c0-2.1,1.7-3.8,3.8-3.8s3.8,1.7,3.8,3.8C78.1,64,76.4,65.8,74.3,65.8z"
					/>
				<path class="st4" d="M74.3,66.8c-2.7,0-4.9-2.2-4.9-4.9c0-2.7,2.2-4.9,4.9-4.9c2.7,0,4.9,2.2,4.9,4.9
					C79.2,64.6,77,66.8,74.3,66.8z M74.3,59.1c-1.5,0-2.8,1.2-2.8,2.8c0,1.5,1.2,2.8,2.8,2.8c1.5,0,2.8-1.2,2.8-2.8
					C77.1,60.4,75.8,59.1,74.3,59.1z"/>
			</g>
			<g>
				<path class="st12" d="M19.9,63.9c-2.1,0-3.8-1.7-3.8-3.8c0-2.1,1.7-3.8,3.8-3.8c2.1,0,3.8,1.7,3.8,3.8
					C23.8,62.1,22.1,63.9,19.9,63.9z"/>
				<path class="st4" d="M19.9,64.9c-2.7,0-4.9-2.2-4.9-4.9s2.2-4.9,4.9-4.9s4.9,2.2,4.9,4.9S22.6,64.9,19.9,64.9z M19.9,57.2
					c-1.5,0-2.8,1.2-2.8,2.8c0,1.5,1.2,2.8,2.8,2.8c1.5,0,2.8-1.2,2.8-2.8C22.7,58.5,21.5,57.2,19.9,57.2z"/>
			</g>
			<g>
				<path class="st11" d="M54.8,57c-0.8-0.4-2,0.1-3.3,1.2c-0.4-2-1.3-3.5-2.4-3.5c-1.1,0-2,1.4-2.4,3.5c-1.2-1.1-2.5-1.6-3.3-1.2
					c-1.2,0.6-0.9,3.3,0.8,5.9c1.5,2.3,3.5,3.1,4.8,2.9c1.3,0.1,3.3-0.6,4.8-2.9C55.6,60.2,56,57.6,54.8,57z"/>
				<path class="st4" d="M49.4,66.8c-0.1,0-0.2,0-0.3,0c-1.6,0.1-4-0.7-5.7-3.4c-1.4-2.1-2-4.4-1.6-5.9c0.2-0.7,0.6-1.2,1.2-1.5
					c0.9-0.4,2-0.3,3.1,0.4c0.6-1.7,1.7-2.8,3-2.8s2.4,1,3,2.8c1.2-0.7,2.3-0.8,3.1-0.4l0,0c0.6,0.3,1,0.8,1.2,1.5
					c0.4,1.5-0.2,3.7-1.6,5.9C53.2,66,50.9,66.8,49.4,66.8z M44,57.9c-0.1,0-0.1,0-0.1,0c0,0-0.1,0.1-0.1,0.2
					c-0.2,0.7,0.2,2.3,1.3,4.1c1.4,2.1,3.1,2.5,3.8,2.5c0.1,0,0.1,0,0.2,0c0.8,0.1,2.5-0.4,3.8-2.5c1.2-1.8,1.5-3.4,1.3-4.1
					c0-0.1-0.1-0.2-0.1-0.2c0,0,0,0,0,0c-0.2-0.1-0.9,0-2.1,1c-0.3,0.3-0.7,0.3-1.1,0.2c-0.4-0.1-0.6-0.4-0.7-0.8
					c-0.3-1.8-1.1-2.6-1.3-2.6c-0.3,0-1,0.8-1.3,2.6c-0.1,0.4-0.3,0.7-0.7,0.8c-0.4,0.1-0.8,0-1.1-0.2C45,58.1,44.3,57.9,44,57.9z"
					/>
			</g>
		</g>
		<g>
			<g>
				<path class="st5" d="M45.9,18.5L45.9,18.5c0.2-2.6-0.4-5.3-1.8-7.5L44,10.8c-2.1-3.4-0.8-7.8,2.8-9.6l0.6-0.3l0.3,2
					c0.3,1.7,0.8,3.3,1.7,4.7l0.5,0.8C52.3,12.2,50.3,17.3,45.9,18.5L45.9,18.5z"/>
				<path class="st6" d="M48.1,16.3L48.1,16.3L48.1,16.3c0.2-2.6-0.4-5.3-1.8-7.5l-0.1-0.2c-1.4-2.3-1.3-5,0-7.1
					C43,3.5,42,7.6,44,10.8l0.1,0.2c1.4,2.2,2,4.9,1.8,7.5l0,0l0,0c1.8-0.5,3.1-1.6,4-2.9C49.4,15.9,48.7,16.1,48.1,16.3z"/>
				<path class="st4" d="M45.9,19.5c-0.2,0-0.5-0.1-0.7-0.2c-0.3-0.2-0.4-0.6-0.4-0.9c0.2-2.4-0.4-4.8-1.7-6.9l-0.1-0.2
					c-1.2-1.9-1.5-4.1-0.9-6.2c0.6-2.1,2.1-3.9,4.1-4.9L46.9,0c0.3-0.1,0.7-0.1,1,0c0.3,0.2,0.5,0.5,0.6,0.8l0.3,2
					c0.2,1.5,0.8,3,1.6,4.3l0.5,0.8c1.3,2.1,1.5,4.6,0.6,6.9c-0.9,2.3-2.8,4-5.3,4.7C46.1,19.5,46,19.5,45.9,19.5z M46.5,2.6
					c-1.1,0.7-1.9,1.8-2.3,3.1c-0.4,1.5-0.2,3.1,0.6,4.5l0.1,0.2c1.2,2,1.9,4.2,2,6.5c1.1-0.6,2-1.6,2.5-2.9c0.7-1.7,0.5-3.5-0.5-5
					l-0.5-0.8c-1-1.6-1.6-3.3-1.9-5.1L46.5,2.6z"/>
			</g>
			<g>
				<path class="st5" d="M28.8,29.2L28.8,29.2c0.2-2.6-0.4-5.3-1.8-7.5l-0.1-0.2c-2.1-3.4-0.8-7.8,2.8-9.6l0.6-0.3l0.3,2
					c0.3,1.7,0.8,3.3,1.7,4.7l0.5,0.8C35.2,22.9,33.2,28,28.8,29.2L28.8,29.2z"/>
				<path class="st6" d="M31,27L31,27L31,27c0.2-2.6-0.4-5.3-1.8-7.5L29,19.4c-1.4-2.3-1.3-5,0-7.1c-3.1,1.9-4.1,6.1-2.1,9.2
					l0.1,0.2c1.4,2.2,2,4.9,1.8,7.5l0,0l0,0c1.8-0.5,3.1-1.6,4-2.9C32.3,26.6,31.6,26.8,31,27z"/>
				<path class="st4" d="M28.8,30.2c-0.2,0-0.5-0.1-0.7-0.2c-0.3-0.2-0.4-0.6-0.4-0.9c0.2-2.4-0.4-4.8-1.7-6.9L26,22.1
					c-1.2-1.9-1.5-4.1-0.9-6.2c0.6-2.1,2.1-3.9,4.1-4.9l0.6-0.3c0.3-0.1,0.7-0.1,1,0c0.3,0.2,0.5,0.5,0.6,0.8l0.3,2
					c0.2,1.5,0.8,3,1.6,4.3l0.5,0.8c1.3,2.1,1.5,4.6,0.6,6.9c-0.9,2.3-2.8,4-5.3,4.7C29,30.2,28.9,30.2,28.8,30.2z M29.5,13.3
					c-1.1,0.7-1.9,1.8-2.3,3.1c-0.4,1.5-0.2,3.1,0.6,4.5l0.1,0.2c1.2,2,1.9,4.2,2,6.5c1.1-0.6,2-1.6,2.5-2.9c0.7-1.7,0.5-3.5-0.5-5
					l-0.5-0.8c-1-1.6-1.6-3.3-1.9-5.1L29.5,13.3z"/>
			</g>
			<g>
				<path class="st5" d="M63,29.2L63,29.2c0.2-2.6-0.4-5.3-1.8-7.5l-0.1-0.2c-2.1-3.4-0.8-7.8,2.8-9.6l0.6-0.3l0.3,2
					c0.3,1.7,0.8,3.3,1.7,4.7l0.5,0.8C69.4,22.9,67.4,28,63,29.2L63,29.2z"/>
				<path class="st6" d="M65.1,27L65.1,27L65.1,27c0.2-2.6-0.4-5.3-1.8-7.5l-0.1-0.2c-1.4-2.3-1.3-5,0-7.1c-3.1,1.9-4.1,6.1-2.1,9.2
					l0.1,0.2c1.4,2.2,2,4.9,1.8,7.5l0,0l0,0c1.8-0.5,3.1-1.6,4-2.9C66.4,26.6,65.8,26.8,65.1,27z"/>
				<path class="st4" d="M63,30.2c-0.2,0-0.5-0.1-0.7-0.2c-0.3-0.2-0.4-0.6-0.4-0.9c0.2-2.4-0.4-4.8-1.7-6.9l-0.1-0.2
					c-1.2-1.9-1.5-4.1-0.9-6.2c0.6-2.1,2.1-3.9,4.1-4.9l0.6-0.3c0.3-0.1,0.7-0.1,1,0c0.3,0.2,0.5,0.5,0.6,0.8l0.3,2
					c0.2,1.5,0.8,3,1.6,4.3l0.5,0.8c1.3,2.1,1.5,4.6,0.6,6.9c-0.9,2.3-2.8,4-5.3,4.7C63.2,30.2,63.1,30.2,63,30.2z M63.6,13.3
					c-1.1,0.7-1.9,1.8-2.3,3.1c-0.4,1.5-0.2,3.1,0.6,4.5l0.1,0.2c1.2,2,1.9,4.2,2,6.5c1.1-0.6,2-1.6,2.5-2.9c0.7-1.7,0.5-3.5-0.5-5
					l-0.5-0.8c-1-1.6-1.6-3.3-1.9-5.1L63.6,13.3z"/>
			</g>
		</g>
		<g>
			<path class="st4" d="M48.6,29.3c-0.6,0-1.1-0.5-1.1-1.1v-3.5c0-0.6,0.5-1.1,1.1-1.1s1.1,0.5,1.1,1.1v3.5
				C49.7,28.8,49.2,29.3,48.6,29.3z"/>
			<path class="st4" d="M55.1,36.1c-0.6,0-1.1-0.5-1.1-1.1v-3.5c0-0.6,0.5-1.1,1.1-1.1c0.6,0,1.1,0.5,1.1,1.1V35
				C56.1,35.6,55.7,36.1,55.1,36.1z"/>
			<path class="st4" d="M22.7,35.3c-0.6,0-1.1-0.5-1.1-1.1v-3.5c0-0.6,0.5-1.1,1.1-1.1s1.1,0.5,1.1,1.1v3.5
				C23.7,34.8,23.3,35.3,22.7,35.3z"/>
			<path class="st4" d="M38.8,36.1c-0.6,0-1.1-0.5-1.1-1.1v-3.5c0-0.6,0.5-1.1,1.1-1.1c0.6,0,1.1,0.5,1.1,1.1V35
				C39.9,35.6,39.4,36.1,38.8,36.1z"/>
		</g>
	</g>
</g>
<g id="Layer_4">
	<path class="st2" d="M94.5,13.7L94.5,13.7c-1.9-1.9-4.9-1.8-6.7,0.1L54.6,48.5c-5.4-3-11.9-1.3-16.8,3.6c-2.9,3-5.1,9.1-6,14.9
		c-0.5,2.9-0.3,6.3,1.5,8.2c1.8,1.8,5.3,2,8.1,1.6c5.8-0.9,11.9-3.1,14.8-6.1c4.9-4.9,6.6-11.5,3.6-16.9l34.6-33.4
		C96.3,18.5,96.3,15.5,94.5,13.7z"/>
	<path class="st3" d="M94.5,13.7L94.5,13.7c-0.4-0.4-0.8-0.7-1.3-0.9c0.9,1.8,0.6,4-0.9,5.4L58.5,50.9c-0.5,0.4-0.6,1.1-0.3,1.7
		c2.3,5.2,0.6,11.4-4.1,16c-2.9,3-9,5.2-14.8,6.1C37,75,34.3,75,32.4,74c0.2,0.5,0.5,0.9,0.9,1.2c1.8,1.8,5.3,2,8.1,1.6
		c5.8-0.9,11.9-3.1,14.8-6.1c4.9-4.9,6.6-11.5,3.6-16.9l34.6-33.4C96.3,18.5,96.3,15.5,94.5,13.7z"/>
</g>
<g id="Layer_5">
	<path class="st5" d="M49.1,94L49.1,94c-24.8,0-45-20.1-45-45v-7.4c0-1.2,1-2.1,2.1-2.1h85.6c1.2,0,2.1,1,2.1,2.1V49
		C94,73.8,73.9,94,49.1,94z"/>
	<path class="st13" d="M8,48.9v-9.5H6.3c-1.2,0-2.1,1-2.1,2.1v7.3c0,24.9,20.1,45,45,45l0,0c0.6,0,1.3,0,1.9,0
		C27.1,92.9,8,73.2,8,48.9z"/>
</g>
<g id="Layer_3">
	<rect x="27.7" y="89.1" class="st14" width="42.7" height="10"/>
</g>
<g id="Layer_2">
	<path class="st7" d="M49.1,94L49.1,94c24.8,0,45-20.2,45-45H4.1C4.1,73.8,24.3,94,49.1,94z"/>
</g>
<g id="Layer_9">
	<g>
		<path class="st4" d="M61.5,68.8c-0.6,0-1.1-0.5-1.1-1.1v-2c0-0.6,0.5-1.1,1.1-1.1c0.6,0,1.1,0.5,1.1,1.1v2
			C62.6,68.3,62.1,68.8,61.5,68.8z"/>
		<path class="st4" d="M46.5,83.8c-0.6,0-1.1-0.5-1.1-1.1v-2c0-0.6,0.5-1.1,1.1-1.1s1.1,0.5,1.1,1.1v2
			C47.6,83.3,47.1,83.8,46.5,83.8z"/>
		<path class="st4" d="M20.9,73.1c-0.6,0-1.1-0.5-1.1-1.1v-2c0-0.6,0.5-1.1,1.1-1.1c0.6,0,1.1,0.5,1.1,1.1v2
			C22,72.6,21.5,73.1,20.9,73.1z"/>
		<path class="st4" d="M33.7,58.1c-0.6,0-1.1-0.5-1.1-1.1v-2c0-0.6,0.5-1.1,1.1-1.1c0.6,0,1.1,0.5,1.1,1.1v2
			C34.8,57.6,34.3,58.1,33.7,58.1z"/>
		<path class="st4" d="M76.6,77.4c-0.6,0-1.1-0.5-1.1-1.1v-2c0-0.6,0.5-1.1,1.1-1.1s1.1,0.5,1.1,1.1v2
			C77.7,76.9,77.2,77.4,76.6,77.4z"/>
	</g>
	<g>
		<path class="st11" d="M52.5,77.3c0,2.9,2.4,5.3,5.3,5.3c2.9,0,5.3-2.4,5.3-5.3H52.5z"/>
	</g>
	<g>
		<path class="st12" d="M34.9,78.8c-2.1,0-3.8-1.7-3.8-3.8c0-2.1,1.7-3.8,3.8-3.8c2.1,0,3.8,1.7,3.8,3.8
			C38.7,77.1,37,78.8,34.9,78.8z"/>
	</g>
	<g>
		<path class="st12" d="M74.3,65.8c-2.1,0-3.8-1.7-3.8-3.8c0-2.1,1.7-3.8,3.8-3.8s3.8,1.7,3.8,3.8C78.1,64,76.4,65.8,74.3,65.8z"/>
	</g>
	<g>
		<path class="st12" d="M19.9,63.9c-2.1,0-3.8-1.7-3.8-3.8c0-2.1,1.7-3.8,3.8-3.8c2.1,0,3.8,1.7,3.8,3.8
			C23.8,62.1,22.1,63.9,19.9,63.9z"/>
	</g>
	<g>
		<path class="st11" d="M54.8,57c-0.8-0.4-2,0.1-3.3,1.2c-0.4-2-1.3-3.5-2.4-3.5c-1.1,0-2,1.4-2.4,3.5c-1.2-1.1-2.5-1.6-3.3-1.2
			c-1.2,0.6-0.9,3.3,0.8,5.9c1.5,2.3,3.5,3.1,4.8,2.9c1.3,0.1,3.3-0.6,4.8-2.9C55.6,60.2,56,57.6,54.8,57z"/>
	</g>
</g>
<g id="Layer_7">
	<path class="st15" d="M45.9,18.5L45.9,18.5c0.2-2.6-0.4-5.3-1.8-7.5L44,10.8c-2.1-3.4-0.8-7.8,2.8-9.6l0.6-0.3l0.3,2
		c0.3,1.7,0.8,3.3,1.7,4.7l0.5,0.8C52.3,12.2,50.3,17.3,45.9,18.5L45.9,18.5z"/>
	<path class="st16" d="M48.1,16.3L48.1,16.3L48.1,16.3c0.2-2.6-0.4-5.3-1.8-7.5l-0.1-0.2c-1.4-2.3-1.3-5,0-7.1
		C43,3.5,42,7.6,44,10.8l0.1,0.2c1.4,2.2,2,4.9,1.8,7.5l0,0l0,0c1.8-0.5,3.1-1.6,4-2.9C49.4,15.9,48.7,16.1,48.1,16.3z"/>
</g>
<g id="Layer_6">
	<path class="st17" d="M63,29.2L63,29.2c0.2-2.6-0.4-5.3-1.8-7.5l-0.1-0.2c-2.1-3.4-0.8-7.8,2.8-9.6l0.6-0.3l0.3,2
		c0.3,1.7,0.8,3.3,1.7,4.7l0.5,0.8C69.4,22.9,67.4,28,63,29.2L63,29.2z"/>
	<path class="st18" d="M65.1,27L65.1,27L65.1,27c0.2-2.6-0.4-5.3-1.8-7.5l-0.1-0.2c-1.4-2.3-1.3-5,0-7.1c-3.1,1.9-4.1,6.1-2.1,9.2
		l0.1,0.2c1.4,2.2,2,4.9,1.8,7.5l0,0l0,0c1.8-0.5,3.1-1.6,4-2.9C66.4,26.6,65.8,26.8,65.1,27z"/>
</g>
<g id="Layer_8">
	<path class="st19" d="M28.8,29.2L28.8,29.2c0.2-2.6-0.4-5.3-1.8-7.5l-0.1-0.2c-2.1-3.4-0.8-7.8,2.8-9.6l0.6-0.3l0.3,2
		c0.3,1.7,0.8,3.3,1.7,4.7l0.5,0.8C35.2,22.9,33.2,28,28.8,29.2L28.8,29.2z"/>
	<path class="st20" d="M31,27L31,27L31,27c0.2-2.6-0.4-5.3-1.8-7.5L29,19.4c-1.4-2.3-1.3-5,0-7.1c-3.1,1.9-4.1,6.1-2.1,9.2l0.1,0.2
		c1.4,2.2,2,4.9,1.8,7.5l0,0l0,0c1.8-0.5,3.1-1.6,4-2.9C32.3,26.6,31.6,26.8,31,27z"/>
</g>
</svg>
