<?xml version="1.0" encoding="utf-8"?>
<!-- Generator: Adobe Illustrator 25.0.0, SVG Export Plug-In . SVG Version: 6.00 Build 0)  -->
<svg version="1.1" id="Layer_1" xmlns="http://www.w3.org/2000/svg" xmlns:xlink="http://www.w3.org/1999/xlink" x="0px" y="0px"
	 viewBox="0 0 48 48" style="enable-background:new 0 0 48 48;" xml:space="preserve">
<style type="text/css">
	.st0{fill:#FFFFFF;}
</style>
<g>
	<g>
		<path class="st0" d="M47.1,9.8c-1.5,0.8-3.3,1.3-4.9,1.5c1.8-1.2,3.1-3,3.8-5.1c-1.6,1-3.5,1.8-5.6,2.3c-1.6-1.8-3.8-3-6.2-3
			c-4.8,0-8.7,4.1-8.7,9.4c0,0.7,0,1.5,0.2,2.1c-7.3-0.3-13.7-4.1-18-9.7c-0.8,1.3-1.2,3-1.2,4.8c0,3.3,1.5,6.1,3.8,7.7
			c-1.5,0-2.8-0.5-3.9-1.2v0.2c0,4.4,3,8.2,6.9,9.2c-0.7,0.2-1.5,0.3-2.3,0.3c-0.5,0-1.2,0-1.6-0.2c1.2,3.8,4.3,6.4,8.1,6.4
			c-3,2.5-6.7,3.9-10.7,3.9c-0.7,0-1.3,0-2.1-0.2c3.8,2.6,8.4,4.3,13.3,4.3c15.9,0,24.7-14.1,24.7-26.5c0-0.3,0-0.8,0-1.2
			C44.5,13.4,46,11.8,47.1,9.8z"/>
	</g>
</g>
</svg>
