<?xml version="1.0" encoding="utf-8"?>
<!-- Generator: Adobe Illustrator 25.0.0, SVG Export Plug-In . SVG Version: 6.00 Build 0)  -->
<svg version="1.1" id="Слой_1" xmlns="http://www.w3.org/2000/svg" xmlns:xlink="http://www.w3.org/1999/xlink" x="0px" y="0px"
	 viewBox="0 0 100 100" style="enable-background:new 0 0 100 100;" xml:space="preserve">
<path d="M65.5,56c8.5-5.2,14.2-14.6,14.2-25.2C79.7,14.4,66.4,1.1,50,1.1S20.3,14.4,20.3,30.7c0,10.7,5.7,20,14.2,25.2
	C16.2,60.1,3.3,71.3,3.3,84.9C3.3,96,32.7,98.9,50,98.9s46.7-3,46.7-14.1C96.7,71.3,83.8,60.1,65.5,56z M26.4,30.7
	C26.4,17.7,37,7.2,50,7.2s23.6,10.6,23.6,23.5S63,54.3,50,54.3S26.4,43.7,26.4,30.7z M50,92.8c-24.9,0-39.9-5.3-40.6-8
	c0-13.5,18.2-24.5,40.6-24.5c22.4,0,40.6,11,40.6,24.5C89.9,87.5,74.9,92.8,50,92.8z"/>
</svg>
